%TF.GenerationSoftware,KiCad,Pcbnew,7.0.7*%
%TF.CreationDate,2024-01-23T19:19:34-06:00*%
%TF.ProjectId,Md-rev-1,4d642d72-6576-42d3-912e-6b696361645f,rev?*%
%TF.SameCoordinates,Original*%
%TF.FileFunction,Legend,Top*%
%TF.FilePolarity,Positive*%
%FSLAX46Y46*%
G04 Gerber Fmt 4.6, Leading zero omitted, Abs format (unit mm)*
G04 Created by KiCad (PCBNEW 7.0.7) date 2024-01-23 19:19:34*
%MOMM*%
%LPD*%
G01*
G04 APERTURE LIST*
%ADD10C,0.150000*%
%ADD11C,0.120000*%
%ADD12C,0.127000*%
%ADD13C,0.200000*%
G04 APERTURE END LIST*
D10*
X135223333Y-118749580D02*
X135175714Y-118797200D01*
X135175714Y-118797200D02*
X135032857Y-118844819D01*
X135032857Y-118844819D02*
X134937619Y-118844819D01*
X134937619Y-118844819D02*
X134794762Y-118797200D01*
X134794762Y-118797200D02*
X134699524Y-118701961D01*
X134699524Y-118701961D02*
X134651905Y-118606723D01*
X134651905Y-118606723D02*
X134604286Y-118416247D01*
X134604286Y-118416247D02*
X134604286Y-118273390D01*
X134604286Y-118273390D02*
X134651905Y-118082914D01*
X134651905Y-118082914D02*
X134699524Y-117987676D01*
X134699524Y-117987676D02*
X134794762Y-117892438D01*
X134794762Y-117892438D02*
X134937619Y-117844819D01*
X134937619Y-117844819D02*
X135032857Y-117844819D01*
X135032857Y-117844819D02*
X135175714Y-117892438D01*
X135175714Y-117892438D02*
X135223333Y-117940057D01*
X136175714Y-118844819D02*
X135604286Y-118844819D01*
X135890000Y-118844819D02*
X135890000Y-117844819D01*
X135890000Y-117844819D02*
X135794762Y-117987676D01*
X135794762Y-117987676D02*
X135699524Y-118082914D01*
X135699524Y-118082914D02*
X135604286Y-118130533D01*
X145014819Y-122826666D02*
X144538628Y-123159999D01*
X145014819Y-123398094D02*
X144014819Y-123398094D01*
X144014819Y-123398094D02*
X144014819Y-123017142D01*
X144014819Y-123017142D02*
X144062438Y-122921904D01*
X144062438Y-122921904D02*
X144110057Y-122874285D01*
X144110057Y-122874285D02*
X144205295Y-122826666D01*
X144205295Y-122826666D02*
X144348152Y-122826666D01*
X144348152Y-122826666D02*
X144443390Y-122874285D01*
X144443390Y-122874285D02*
X144491009Y-122921904D01*
X144491009Y-122921904D02*
X144538628Y-123017142D01*
X144538628Y-123017142D02*
X144538628Y-123398094D01*
X144348152Y-121969523D02*
X145014819Y-121969523D01*
X143967200Y-122207618D02*
X144681485Y-122445713D01*
X144681485Y-122445713D02*
X144681485Y-121826666D01*
X146241905Y-112564819D02*
X146241905Y-111564819D01*
X146241905Y-111564819D02*
X146480000Y-111564819D01*
X146480000Y-111564819D02*
X146622857Y-111612438D01*
X146622857Y-111612438D02*
X146718095Y-111707676D01*
X146718095Y-111707676D02*
X146765714Y-111802914D01*
X146765714Y-111802914D02*
X146813333Y-111993390D01*
X146813333Y-111993390D02*
X146813333Y-112136247D01*
X146813333Y-112136247D02*
X146765714Y-112326723D01*
X146765714Y-112326723D02*
X146718095Y-112421961D01*
X146718095Y-112421961D02*
X146622857Y-112517200D01*
X146622857Y-112517200D02*
X146480000Y-112564819D01*
X146480000Y-112564819D02*
X146241905Y-112564819D01*
X147194286Y-111660057D02*
X147241905Y-111612438D01*
X147241905Y-111612438D02*
X147337143Y-111564819D01*
X147337143Y-111564819D02*
X147575238Y-111564819D01*
X147575238Y-111564819D02*
X147670476Y-111612438D01*
X147670476Y-111612438D02*
X147718095Y-111660057D01*
X147718095Y-111660057D02*
X147765714Y-111755295D01*
X147765714Y-111755295D02*
X147765714Y-111850533D01*
X147765714Y-111850533D02*
X147718095Y-111993390D01*
X147718095Y-111993390D02*
X147146667Y-112564819D01*
X147146667Y-112564819D02*
X147765714Y-112564819D01*
X135223333Y-122364819D02*
X134890000Y-121888628D01*
X134651905Y-122364819D02*
X134651905Y-121364819D01*
X134651905Y-121364819D02*
X135032857Y-121364819D01*
X135032857Y-121364819D02*
X135128095Y-121412438D01*
X135128095Y-121412438D02*
X135175714Y-121460057D01*
X135175714Y-121460057D02*
X135223333Y-121555295D01*
X135223333Y-121555295D02*
X135223333Y-121698152D01*
X135223333Y-121698152D02*
X135175714Y-121793390D01*
X135175714Y-121793390D02*
X135128095Y-121841009D01*
X135128095Y-121841009D02*
X135032857Y-121888628D01*
X135032857Y-121888628D02*
X134651905Y-121888628D01*
X135556667Y-121364819D02*
X136175714Y-121364819D01*
X136175714Y-121364819D02*
X135842381Y-121745771D01*
X135842381Y-121745771D02*
X135985238Y-121745771D01*
X135985238Y-121745771D02*
X136080476Y-121793390D01*
X136080476Y-121793390D02*
X136128095Y-121841009D01*
X136128095Y-121841009D02*
X136175714Y-121936247D01*
X136175714Y-121936247D02*
X136175714Y-122174342D01*
X136175714Y-122174342D02*
X136128095Y-122269580D01*
X136128095Y-122269580D02*
X136080476Y-122317200D01*
X136080476Y-122317200D02*
X135985238Y-122364819D01*
X135985238Y-122364819D02*
X135699524Y-122364819D01*
X135699524Y-122364819D02*
X135604286Y-122317200D01*
X135604286Y-122317200D02*
X135556667Y-122269580D01*
X165076666Y-114364819D02*
X165076666Y-115079104D01*
X165076666Y-115079104D02*
X165029047Y-115221961D01*
X165029047Y-115221961D02*
X164933809Y-115317200D01*
X164933809Y-115317200D02*
X164790952Y-115364819D01*
X164790952Y-115364819D02*
X164695714Y-115364819D01*
X165505238Y-114460057D02*
X165552857Y-114412438D01*
X165552857Y-114412438D02*
X165648095Y-114364819D01*
X165648095Y-114364819D02*
X165886190Y-114364819D01*
X165886190Y-114364819D02*
X165981428Y-114412438D01*
X165981428Y-114412438D02*
X166029047Y-114460057D01*
X166029047Y-114460057D02*
X166076666Y-114555295D01*
X166076666Y-114555295D02*
X166076666Y-114650533D01*
X166076666Y-114650533D02*
X166029047Y-114793390D01*
X166029047Y-114793390D02*
X165457619Y-115364819D01*
X165457619Y-115364819D02*
X166076666Y-115364819D01*
X176288333Y-123119580D02*
X176240714Y-123167200D01*
X176240714Y-123167200D02*
X176097857Y-123214819D01*
X176097857Y-123214819D02*
X176002619Y-123214819D01*
X176002619Y-123214819D02*
X175859762Y-123167200D01*
X175859762Y-123167200D02*
X175764524Y-123071961D01*
X175764524Y-123071961D02*
X175716905Y-122976723D01*
X175716905Y-122976723D02*
X175669286Y-122786247D01*
X175669286Y-122786247D02*
X175669286Y-122643390D01*
X175669286Y-122643390D02*
X175716905Y-122452914D01*
X175716905Y-122452914D02*
X175764524Y-122357676D01*
X175764524Y-122357676D02*
X175859762Y-122262438D01*
X175859762Y-122262438D02*
X176002619Y-122214819D01*
X176002619Y-122214819D02*
X176097857Y-122214819D01*
X176097857Y-122214819D02*
X176240714Y-122262438D01*
X176240714Y-122262438D02*
X176288333Y-122310057D01*
X177193095Y-122214819D02*
X176716905Y-122214819D01*
X176716905Y-122214819D02*
X176669286Y-122691009D01*
X176669286Y-122691009D02*
X176716905Y-122643390D01*
X176716905Y-122643390D02*
X176812143Y-122595771D01*
X176812143Y-122595771D02*
X177050238Y-122595771D01*
X177050238Y-122595771D02*
X177145476Y-122643390D01*
X177145476Y-122643390D02*
X177193095Y-122691009D01*
X177193095Y-122691009D02*
X177240714Y-122786247D01*
X177240714Y-122786247D02*
X177240714Y-123024342D01*
X177240714Y-123024342D02*
X177193095Y-123119580D01*
X177193095Y-123119580D02*
X177145476Y-123167200D01*
X177145476Y-123167200D02*
X177050238Y-123214819D01*
X177050238Y-123214819D02*
X176812143Y-123214819D01*
X176812143Y-123214819D02*
X176716905Y-123167200D01*
X176716905Y-123167200D02*
X176669286Y-123119580D01*
X176203333Y-120054819D02*
X175870000Y-119578628D01*
X175631905Y-120054819D02*
X175631905Y-119054819D01*
X175631905Y-119054819D02*
X176012857Y-119054819D01*
X176012857Y-119054819D02*
X176108095Y-119102438D01*
X176108095Y-119102438D02*
X176155714Y-119150057D01*
X176155714Y-119150057D02*
X176203333Y-119245295D01*
X176203333Y-119245295D02*
X176203333Y-119388152D01*
X176203333Y-119388152D02*
X176155714Y-119483390D01*
X176155714Y-119483390D02*
X176108095Y-119531009D01*
X176108095Y-119531009D02*
X176012857Y-119578628D01*
X176012857Y-119578628D02*
X175631905Y-119578628D01*
X176774762Y-119483390D02*
X176679524Y-119435771D01*
X176679524Y-119435771D02*
X176631905Y-119388152D01*
X176631905Y-119388152D02*
X176584286Y-119292914D01*
X176584286Y-119292914D02*
X176584286Y-119245295D01*
X176584286Y-119245295D02*
X176631905Y-119150057D01*
X176631905Y-119150057D02*
X176679524Y-119102438D01*
X176679524Y-119102438D02*
X176774762Y-119054819D01*
X176774762Y-119054819D02*
X176965238Y-119054819D01*
X176965238Y-119054819D02*
X177060476Y-119102438D01*
X177060476Y-119102438D02*
X177108095Y-119150057D01*
X177108095Y-119150057D02*
X177155714Y-119245295D01*
X177155714Y-119245295D02*
X177155714Y-119292914D01*
X177155714Y-119292914D02*
X177108095Y-119388152D01*
X177108095Y-119388152D02*
X177060476Y-119435771D01*
X177060476Y-119435771D02*
X176965238Y-119483390D01*
X176965238Y-119483390D02*
X176774762Y-119483390D01*
X176774762Y-119483390D02*
X176679524Y-119531009D01*
X176679524Y-119531009D02*
X176631905Y-119578628D01*
X176631905Y-119578628D02*
X176584286Y-119673866D01*
X176584286Y-119673866D02*
X176584286Y-119864342D01*
X176584286Y-119864342D02*
X176631905Y-119959580D01*
X176631905Y-119959580D02*
X176679524Y-120007200D01*
X176679524Y-120007200D02*
X176774762Y-120054819D01*
X176774762Y-120054819D02*
X176965238Y-120054819D01*
X176965238Y-120054819D02*
X177060476Y-120007200D01*
X177060476Y-120007200D02*
X177108095Y-119959580D01*
X177108095Y-119959580D02*
X177155714Y-119864342D01*
X177155714Y-119864342D02*
X177155714Y-119673866D01*
X177155714Y-119673866D02*
X177108095Y-119578628D01*
X177108095Y-119578628D02*
X177060476Y-119531009D01*
X177060476Y-119531009D02*
X176965238Y-119483390D01*
X164833095Y-122314819D02*
X164833095Y-123124342D01*
X164833095Y-123124342D02*
X164880714Y-123219580D01*
X164880714Y-123219580D02*
X164928333Y-123267200D01*
X164928333Y-123267200D02*
X165023571Y-123314819D01*
X165023571Y-123314819D02*
X165214047Y-123314819D01*
X165214047Y-123314819D02*
X165309285Y-123267200D01*
X165309285Y-123267200D02*
X165356904Y-123219580D01*
X165356904Y-123219580D02*
X165404523Y-123124342D01*
X165404523Y-123124342D02*
X165404523Y-122314819D01*
X165833095Y-122410057D02*
X165880714Y-122362438D01*
X165880714Y-122362438D02*
X165975952Y-122314819D01*
X165975952Y-122314819D02*
X166214047Y-122314819D01*
X166214047Y-122314819D02*
X166309285Y-122362438D01*
X166309285Y-122362438D02*
X166356904Y-122410057D01*
X166356904Y-122410057D02*
X166404523Y-122505295D01*
X166404523Y-122505295D02*
X166404523Y-122600533D01*
X166404523Y-122600533D02*
X166356904Y-122743390D01*
X166356904Y-122743390D02*
X165785476Y-123314819D01*
X165785476Y-123314819D02*
X166404523Y-123314819D01*
X137193333Y-118193200D02*
X137393333Y-118259866D01*
X137393333Y-118259866D02*
X137726667Y-118259866D01*
X137726667Y-118259866D02*
X137860000Y-118193200D01*
X137860000Y-118193200D02*
X137926667Y-118126533D01*
X137926667Y-118126533D02*
X137993333Y-117993200D01*
X137993333Y-117993200D02*
X137993333Y-117859866D01*
X137993333Y-117859866D02*
X137926667Y-117726533D01*
X137926667Y-117726533D02*
X137860000Y-117659866D01*
X137860000Y-117659866D02*
X137726667Y-117593200D01*
X137726667Y-117593200D02*
X137460000Y-117526533D01*
X137460000Y-117526533D02*
X137326667Y-117459866D01*
X137326667Y-117459866D02*
X137260000Y-117393200D01*
X137260000Y-117393200D02*
X137193333Y-117259866D01*
X137193333Y-117259866D02*
X137193333Y-117126533D01*
X137193333Y-117126533D02*
X137260000Y-116993200D01*
X137260000Y-116993200D02*
X137326667Y-116926533D01*
X137326667Y-116926533D02*
X137460000Y-116859866D01*
X137460000Y-116859866D02*
X137793333Y-116859866D01*
X137793333Y-116859866D02*
X137993333Y-116926533D01*
X139326666Y-118259866D02*
X138526666Y-118259866D01*
X138926666Y-118259866D02*
X138926666Y-116859866D01*
X138926666Y-116859866D02*
X138793333Y-117059866D01*
X138793333Y-117059866D02*
X138660000Y-117193200D01*
X138660000Y-117193200D02*
X138526666Y-117259866D01*
X131441905Y-112734819D02*
X131441905Y-111734819D01*
X131441905Y-111734819D02*
X131680000Y-111734819D01*
X131680000Y-111734819D02*
X131822857Y-111782438D01*
X131822857Y-111782438D02*
X131918095Y-111877676D01*
X131918095Y-111877676D02*
X131965714Y-111972914D01*
X131965714Y-111972914D02*
X132013333Y-112163390D01*
X132013333Y-112163390D02*
X132013333Y-112306247D01*
X132013333Y-112306247D02*
X131965714Y-112496723D01*
X131965714Y-112496723D02*
X131918095Y-112591961D01*
X131918095Y-112591961D02*
X131822857Y-112687200D01*
X131822857Y-112687200D02*
X131680000Y-112734819D01*
X131680000Y-112734819D02*
X131441905Y-112734819D01*
X132965714Y-112734819D02*
X132394286Y-112734819D01*
X132680000Y-112734819D02*
X132680000Y-111734819D01*
X132680000Y-111734819D02*
X132584762Y-111877676D01*
X132584762Y-111877676D02*
X132489524Y-111972914D01*
X132489524Y-111972914D02*
X132394286Y-112020533D01*
X172448333Y-123079580D02*
X172400714Y-123127200D01*
X172400714Y-123127200D02*
X172257857Y-123174819D01*
X172257857Y-123174819D02*
X172162619Y-123174819D01*
X172162619Y-123174819D02*
X172019762Y-123127200D01*
X172019762Y-123127200D02*
X171924524Y-123031961D01*
X171924524Y-123031961D02*
X171876905Y-122936723D01*
X171876905Y-122936723D02*
X171829286Y-122746247D01*
X171829286Y-122746247D02*
X171829286Y-122603390D01*
X171829286Y-122603390D02*
X171876905Y-122412914D01*
X171876905Y-122412914D02*
X171924524Y-122317676D01*
X171924524Y-122317676D02*
X172019762Y-122222438D01*
X172019762Y-122222438D02*
X172162619Y-122174819D01*
X172162619Y-122174819D02*
X172257857Y-122174819D01*
X172257857Y-122174819D02*
X172400714Y-122222438D01*
X172400714Y-122222438D02*
X172448333Y-122270057D01*
X173305476Y-122174819D02*
X173115000Y-122174819D01*
X173115000Y-122174819D02*
X173019762Y-122222438D01*
X173019762Y-122222438D02*
X172972143Y-122270057D01*
X172972143Y-122270057D02*
X172876905Y-122412914D01*
X172876905Y-122412914D02*
X172829286Y-122603390D01*
X172829286Y-122603390D02*
X172829286Y-122984342D01*
X172829286Y-122984342D02*
X172876905Y-123079580D01*
X172876905Y-123079580D02*
X172924524Y-123127200D01*
X172924524Y-123127200D02*
X173019762Y-123174819D01*
X173019762Y-123174819D02*
X173210238Y-123174819D01*
X173210238Y-123174819D02*
X173305476Y-123127200D01*
X173305476Y-123127200D02*
X173353095Y-123079580D01*
X173353095Y-123079580D02*
X173400714Y-122984342D01*
X173400714Y-122984342D02*
X173400714Y-122746247D01*
X173400714Y-122746247D02*
X173353095Y-122651009D01*
X173353095Y-122651009D02*
X173305476Y-122603390D01*
X173305476Y-122603390D02*
X173210238Y-122555771D01*
X173210238Y-122555771D02*
X173019762Y-122555771D01*
X173019762Y-122555771D02*
X172924524Y-122603390D01*
X172924524Y-122603390D02*
X172876905Y-122651009D01*
X172876905Y-122651009D02*
X172829286Y-122746247D01*
X156576666Y-117179819D02*
X156576666Y-117894104D01*
X156576666Y-117894104D02*
X156529047Y-118036961D01*
X156529047Y-118036961D02*
X156433809Y-118132200D01*
X156433809Y-118132200D02*
X156290952Y-118179819D01*
X156290952Y-118179819D02*
X156195714Y-118179819D01*
X157576666Y-118179819D02*
X157005238Y-118179819D01*
X157290952Y-118179819D02*
X157290952Y-117179819D01*
X157290952Y-117179819D02*
X157195714Y-117322676D01*
X157195714Y-117322676D02*
X157100476Y-117417914D01*
X157100476Y-117417914D02*
X157005238Y-117465533D01*
X172378333Y-116814819D02*
X172045000Y-116338628D01*
X171806905Y-116814819D02*
X171806905Y-115814819D01*
X171806905Y-115814819D02*
X172187857Y-115814819D01*
X172187857Y-115814819D02*
X172283095Y-115862438D01*
X172283095Y-115862438D02*
X172330714Y-115910057D01*
X172330714Y-115910057D02*
X172378333Y-116005295D01*
X172378333Y-116005295D02*
X172378333Y-116148152D01*
X172378333Y-116148152D02*
X172330714Y-116243390D01*
X172330714Y-116243390D02*
X172283095Y-116291009D01*
X172283095Y-116291009D02*
X172187857Y-116338628D01*
X172187857Y-116338628D02*
X171806905Y-116338628D01*
X173235476Y-115814819D02*
X173045000Y-115814819D01*
X173045000Y-115814819D02*
X172949762Y-115862438D01*
X172949762Y-115862438D02*
X172902143Y-115910057D01*
X172902143Y-115910057D02*
X172806905Y-116052914D01*
X172806905Y-116052914D02*
X172759286Y-116243390D01*
X172759286Y-116243390D02*
X172759286Y-116624342D01*
X172759286Y-116624342D02*
X172806905Y-116719580D01*
X172806905Y-116719580D02*
X172854524Y-116767200D01*
X172854524Y-116767200D02*
X172949762Y-116814819D01*
X172949762Y-116814819D02*
X173140238Y-116814819D01*
X173140238Y-116814819D02*
X173235476Y-116767200D01*
X173235476Y-116767200D02*
X173283095Y-116719580D01*
X173283095Y-116719580D02*
X173330714Y-116624342D01*
X173330714Y-116624342D02*
X173330714Y-116386247D01*
X173330714Y-116386247D02*
X173283095Y-116291009D01*
X173283095Y-116291009D02*
X173235476Y-116243390D01*
X173235476Y-116243390D02*
X173140238Y-116195771D01*
X173140238Y-116195771D02*
X172949762Y-116195771D01*
X172949762Y-116195771D02*
X172854524Y-116243390D01*
X172854524Y-116243390D02*
X172806905Y-116291009D01*
X172806905Y-116291009D02*
X172759286Y-116386247D01*
X172403333Y-120034819D02*
X172070000Y-119558628D01*
X171831905Y-120034819D02*
X171831905Y-119034819D01*
X171831905Y-119034819D02*
X172212857Y-119034819D01*
X172212857Y-119034819D02*
X172308095Y-119082438D01*
X172308095Y-119082438D02*
X172355714Y-119130057D01*
X172355714Y-119130057D02*
X172403333Y-119225295D01*
X172403333Y-119225295D02*
X172403333Y-119368152D01*
X172403333Y-119368152D02*
X172355714Y-119463390D01*
X172355714Y-119463390D02*
X172308095Y-119511009D01*
X172308095Y-119511009D02*
X172212857Y-119558628D01*
X172212857Y-119558628D02*
X171831905Y-119558628D01*
X172736667Y-119034819D02*
X173403333Y-119034819D01*
X173403333Y-119034819D02*
X172974762Y-120034819D01*
D11*
%TO.C,C1*%
X135128748Y-119335000D02*
X135651252Y-119335000D01*
X135128748Y-120805000D02*
X135651252Y-120805000D01*
%TO.C,R4*%
X145475000Y-122887064D02*
X145475000Y-122432936D01*
X146945000Y-122887064D02*
X146945000Y-122432936D01*
%TO.C,D2*%
X148655000Y-111190000D02*
X148655000Y-109270000D01*
X148655000Y-109270000D02*
X145970000Y-109270000D01*
X145970000Y-111190000D02*
X148655000Y-111190000D01*
%TO.C,R3*%
X135617064Y-124255000D02*
X135162936Y-124255000D01*
X135617064Y-122785000D02*
X135162936Y-122785000D01*
D12*
%TO.C,J2*%
X175070000Y-106170000D02*
X170010000Y-106170000D01*
X166840000Y-106170000D02*
X167870000Y-106170000D01*
X178840000Y-107140000D02*
X178840000Y-111500000D01*
X173496000Y-112470000D02*
X176770000Y-112470000D01*
X170005000Y-112470000D02*
X171270000Y-112470000D01*
X166840000Y-112470000D02*
X167870000Y-112470000D01*
D13*
X169040000Y-114420000D02*
G75*
G03*
X169040000Y-114420000I-100000J0D01*
G01*
D11*
%TO.C,C5*%
X176726252Y-125105000D02*
X176203748Y-125105000D01*
X176726252Y-123635000D02*
X176203748Y-123635000D01*
%TO.C,R8*%
X176602064Y-121855000D02*
X176147936Y-121855000D01*
X176602064Y-120385000D02*
X176147936Y-120385000D01*
D10*
%TO.C,U2*%
X164095000Y-121855000D02*
X167095000Y-121855000D01*
X165595000Y-118605000D02*
X167095000Y-118605000D01*
D12*
%TO.C,S1*%
X144720000Y-113609000D02*
X144720000Y-107811000D01*
X142440000Y-104725000D02*
X142440000Y-101625000D01*
X142440000Y-104725000D02*
X136840000Y-104725000D01*
X142440000Y-101625000D02*
X136840000Y-101625000D01*
X136840000Y-101625000D02*
X136840000Y-104725000D01*
X134560000Y-113609000D02*
X134560000Y-107811000D01*
D13*
X143425000Y-116960000D02*
G75*
G03*
X143425000Y-116960000I-100000J0D01*
G01*
D11*
%TO.C,D1*%
X130495000Y-109600000D02*
X130495000Y-111520000D01*
X130495000Y-111520000D02*
X133180000Y-111520000D01*
X133180000Y-109600000D02*
X130495000Y-109600000D01*
%TO.C,C6*%
X172353748Y-123665000D02*
X172876252Y-123665000D01*
X172353748Y-125135000D02*
X172876252Y-125135000D01*
%TO.C,J1*%
X152240000Y-123225000D02*
X152240000Y-121425000D01*
X152240000Y-125325000D02*
X152240000Y-126475000D01*
X161580000Y-123225000D02*
X161580000Y-121425000D01*
X161580000Y-125325000D02*
X161580000Y-126475000D01*
%TO.C,R6*%
X172772064Y-118605000D02*
X172317936Y-118605000D01*
X172772064Y-117135000D02*
X172317936Y-117135000D01*
%TO.C,R7*%
X172782064Y-121835000D02*
X172327936Y-121835000D01*
X172782064Y-120365000D02*
X172327936Y-120365000D01*
%TD*%
M02*
