%TF.GenerationSoftware,KiCad,Pcbnew,7.0.7*%
%TF.CreationDate,2024-02-01T23:59:20-06:00*%
%TF.ProjectId,Md-rev-1,4d642d72-6576-42d3-912e-6b696361645f,rev?*%
%TF.SameCoordinates,Original*%
%TF.FileFunction,Legend,Top*%
%TF.FilePolarity,Positive*%
%FSLAX46Y46*%
G04 Gerber Fmt 4.6, Leading zero omitted, Abs format (unit mm)*
G04 Created by KiCad (PCBNEW 7.0.7) date 2024-02-01 23:59:20*
%MOMM*%
%LPD*%
G01*
G04 APERTURE LIST*
%ADD10C,0.150000*%
%ADD11C,0.120000*%
%ADD12C,0.127000*%
%ADD13C,0.200000*%
%ADD14C,0.152400*%
G04 APERTURE END LIST*
D10*
X143336104Y-119493332D02*
X143374200Y-119531428D01*
X143374200Y-119531428D02*
X143412295Y-119645713D01*
X143412295Y-119645713D02*
X143412295Y-119721904D01*
X143412295Y-119721904D02*
X143374200Y-119836190D01*
X143374200Y-119836190D02*
X143298009Y-119912380D01*
X143298009Y-119912380D02*
X143221819Y-119950475D01*
X143221819Y-119950475D02*
X143069438Y-119988571D01*
X143069438Y-119988571D02*
X142955152Y-119988571D01*
X142955152Y-119988571D02*
X142802771Y-119950475D01*
X142802771Y-119950475D02*
X142726580Y-119912380D01*
X142726580Y-119912380D02*
X142650390Y-119836190D01*
X142650390Y-119836190D02*
X142612295Y-119721904D01*
X142612295Y-119721904D02*
X142612295Y-119645713D01*
X142612295Y-119645713D02*
X142650390Y-119531428D01*
X142650390Y-119531428D02*
X142688485Y-119493332D01*
X143412295Y-118731428D02*
X143412295Y-119188571D01*
X143412295Y-118959999D02*
X142612295Y-118959999D01*
X142612295Y-118959999D02*
X142726580Y-119036190D01*
X142726580Y-119036190D02*
X142802771Y-119112380D01*
X142802771Y-119112380D02*
X142840866Y-119188571D01*
X148604819Y-119756666D02*
X148128628Y-120089999D01*
X148604819Y-120328094D02*
X147604819Y-120328094D01*
X147604819Y-120328094D02*
X147604819Y-119947142D01*
X147604819Y-119947142D02*
X147652438Y-119851904D01*
X147652438Y-119851904D02*
X147700057Y-119804285D01*
X147700057Y-119804285D02*
X147795295Y-119756666D01*
X147795295Y-119756666D02*
X147938152Y-119756666D01*
X147938152Y-119756666D02*
X148033390Y-119804285D01*
X148033390Y-119804285D02*
X148081009Y-119851904D01*
X148081009Y-119851904D02*
X148128628Y-119947142D01*
X148128628Y-119947142D02*
X148128628Y-120328094D01*
X147938152Y-118899523D02*
X148604819Y-118899523D01*
X147557200Y-119137618D02*
X148271485Y-119375713D01*
X148271485Y-119375713D02*
X148271485Y-118756666D01*
X167703333Y-119969580D02*
X167655714Y-120017200D01*
X167655714Y-120017200D02*
X167512857Y-120064819D01*
X167512857Y-120064819D02*
X167417619Y-120064819D01*
X167417619Y-120064819D02*
X167274762Y-120017200D01*
X167274762Y-120017200D02*
X167179524Y-119921961D01*
X167179524Y-119921961D02*
X167131905Y-119826723D01*
X167131905Y-119826723D02*
X167084286Y-119636247D01*
X167084286Y-119636247D02*
X167084286Y-119493390D01*
X167084286Y-119493390D02*
X167131905Y-119302914D01*
X167131905Y-119302914D02*
X167179524Y-119207676D01*
X167179524Y-119207676D02*
X167274762Y-119112438D01*
X167274762Y-119112438D02*
X167417619Y-119064819D01*
X167417619Y-119064819D02*
X167512857Y-119064819D01*
X167512857Y-119064819D02*
X167655714Y-119112438D01*
X167655714Y-119112438D02*
X167703333Y-119160057D01*
X168036667Y-119064819D02*
X168655714Y-119064819D01*
X168655714Y-119064819D02*
X168322381Y-119445771D01*
X168322381Y-119445771D02*
X168465238Y-119445771D01*
X168465238Y-119445771D02*
X168560476Y-119493390D01*
X168560476Y-119493390D02*
X168608095Y-119541009D01*
X168608095Y-119541009D02*
X168655714Y-119636247D01*
X168655714Y-119636247D02*
X168655714Y-119874342D01*
X168655714Y-119874342D02*
X168608095Y-119969580D01*
X168608095Y-119969580D02*
X168560476Y-120017200D01*
X168560476Y-120017200D02*
X168465238Y-120064819D01*
X168465238Y-120064819D02*
X168179524Y-120064819D01*
X168179524Y-120064819D02*
X168084286Y-120017200D01*
X168084286Y-120017200D02*
X168036667Y-119969580D01*
X148614819Y-123284166D02*
X148138628Y-123617499D01*
X148614819Y-123855594D02*
X147614819Y-123855594D01*
X147614819Y-123855594D02*
X147614819Y-123474642D01*
X147614819Y-123474642D02*
X147662438Y-123379404D01*
X147662438Y-123379404D02*
X147710057Y-123331785D01*
X147710057Y-123331785D02*
X147805295Y-123284166D01*
X147805295Y-123284166D02*
X147948152Y-123284166D01*
X147948152Y-123284166D02*
X148043390Y-123331785D01*
X148043390Y-123331785D02*
X148091009Y-123379404D01*
X148091009Y-123379404D02*
X148138628Y-123474642D01*
X148138628Y-123474642D02*
X148138628Y-123855594D01*
X147614819Y-122379404D02*
X147614819Y-122855594D01*
X147614819Y-122855594D02*
X148091009Y-122903213D01*
X148091009Y-122903213D02*
X148043390Y-122855594D01*
X148043390Y-122855594D02*
X147995771Y-122760356D01*
X147995771Y-122760356D02*
X147995771Y-122522261D01*
X147995771Y-122522261D02*
X148043390Y-122427023D01*
X148043390Y-122427023D02*
X148091009Y-122379404D01*
X148091009Y-122379404D02*
X148186247Y-122331785D01*
X148186247Y-122331785D02*
X148424342Y-122331785D01*
X148424342Y-122331785D02*
X148519580Y-122379404D01*
X148519580Y-122379404D02*
X148567200Y-122427023D01*
X148567200Y-122427023D02*
X148614819Y-122522261D01*
X148614819Y-122522261D02*
X148614819Y-122760356D01*
X148614819Y-122760356D02*
X148567200Y-122855594D01*
X148567200Y-122855594D02*
X148519580Y-122903213D01*
X131359405Y-113714819D02*
X131359405Y-112714819D01*
X131359405Y-112714819D02*
X131597500Y-112714819D01*
X131597500Y-112714819D02*
X131740357Y-112762438D01*
X131740357Y-112762438D02*
X131835595Y-112857676D01*
X131835595Y-112857676D02*
X131883214Y-112952914D01*
X131883214Y-112952914D02*
X131930833Y-113143390D01*
X131930833Y-113143390D02*
X131930833Y-113286247D01*
X131930833Y-113286247D02*
X131883214Y-113476723D01*
X131883214Y-113476723D02*
X131835595Y-113571961D01*
X131835595Y-113571961D02*
X131740357Y-113667200D01*
X131740357Y-113667200D02*
X131597500Y-113714819D01*
X131597500Y-113714819D02*
X131359405Y-113714819D01*
X132311786Y-112810057D02*
X132359405Y-112762438D01*
X132359405Y-112762438D02*
X132454643Y-112714819D01*
X132454643Y-112714819D02*
X132692738Y-112714819D01*
X132692738Y-112714819D02*
X132787976Y-112762438D01*
X132787976Y-112762438D02*
X132835595Y-112810057D01*
X132835595Y-112810057D02*
X132883214Y-112905295D01*
X132883214Y-112905295D02*
X132883214Y-113000533D01*
X132883214Y-113000533D02*
X132835595Y-113143390D01*
X132835595Y-113143390D02*
X132264167Y-113714819D01*
X132264167Y-113714819D02*
X132883214Y-113714819D01*
X148574819Y-116056666D02*
X148098628Y-116389999D01*
X148574819Y-116628094D02*
X147574819Y-116628094D01*
X147574819Y-116628094D02*
X147574819Y-116247142D01*
X147574819Y-116247142D02*
X147622438Y-116151904D01*
X147622438Y-116151904D02*
X147670057Y-116104285D01*
X147670057Y-116104285D02*
X147765295Y-116056666D01*
X147765295Y-116056666D02*
X147908152Y-116056666D01*
X147908152Y-116056666D02*
X148003390Y-116104285D01*
X148003390Y-116104285D02*
X148051009Y-116151904D01*
X148051009Y-116151904D02*
X148098628Y-116247142D01*
X148098628Y-116247142D02*
X148098628Y-116628094D01*
X147574819Y-115723332D02*
X147574819Y-115104285D01*
X147574819Y-115104285D02*
X147955771Y-115437618D01*
X147955771Y-115437618D02*
X147955771Y-115294761D01*
X147955771Y-115294761D02*
X148003390Y-115199523D01*
X148003390Y-115199523D02*
X148051009Y-115151904D01*
X148051009Y-115151904D02*
X148146247Y-115104285D01*
X148146247Y-115104285D02*
X148384342Y-115104285D01*
X148384342Y-115104285D02*
X148479580Y-115151904D01*
X148479580Y-115151904D02*
X148527200Y-115199523D01*
X148527200Y-115199523D02*
X148574819Y-115294761D01*
X148574819Y-115294761D02*
X148574819Y-115580475D01*
X148574819Y-115580475D02*
X148527200Y-115675713D01*
X148527200Y-115675713D02*
X148479580Y-115723332D01*
X165426666Y-108484819D02*
X165426666Y-109199104D01*
X165426666Y-109199104D02*
X165379047Y-109341961D01*
X165379047Y-109341961D02*
X165283809Y-109437200D01*
X165283809Y-109437200D02*
X165140952Y-109484819D01*
X165140952Y-109484819D02*
X165045714Y-109484819D01*
X165855238Y-108580057D02*
X165902857Y-108532438D01*
X165902857Y-108532438D02*
X165998095Y-108484819D01*
X165998095Y-108484819D02*
X166236190Y-108484819D01*
X166236190Y-108484819D02*
X166331428Y-108532438D01*
X166331428Y-108532438D02*
X166379047Y-108580057D01*
X166379047Y-108580057D02*
X166426666Y-108675295D01*
X166426666Y-108675295D02*
X166426666Y-108770533D01*
X166426666Y-108770533D02*
X166379047Y-108913390D01*
X166379047Y-108913390D02*
X165807619Y-109484819D01*
X165807619Y-109484819D02*
X166426666Y-109484819D01*
X165039580Y-116486666D02*
X165087200Y-116534285D01*
X165087200Y-116534285D02*
X165134819Y-116677142D01*
X165134819Y-116677142D02*
X165134819Y-116772380D01*
X165134819Y-116772380D02*
X165087200Y-116915237D01*
X165087200Y-116915237D02*
X164991961Y-117010475D01*
X164991961Y-117010475D02*
X164896723Y-117058094D01*
X164896723Y-117058094D02*
X164706247Y-117105713D01*
X164706247Y-117105713D02*
X164563390Y-117105713D01*
X164563390Y-117105713D02*
X164372914Y-117058094D01*
X164372914Y-117058094D02*
X164277676Y-117010475D01*
X164277676Y-117010475D02*
X164182438Y-116915237D01*
X164182438Y-116915237D02*
X164134819Y-116772380D01*
X164134819Y-116772380D02*
X164134819Y-116677142D01*
X164134819Y-116677142D02*
X164182438Y-116534285D01*
X164182438Y-116534285D02*
X164230057Y-116486666D01*
X164134819Y-115581904D02*
X164134819Y-116058094D01*
X164134819Y-116058094D02*
X164611009Y-116105713D01*
X164611009Y-116105713D02*
X164563390Y-116058094D01*
X164563390Y-116058094D02*
X164515771Y-115962856D01*
X164515771Y-115962856D02*
X164515771Y-115724761D01*
X164515771Y-115724761D02*
X164563390Y-115629523D01*
X164563390Y-115629523D02*
X164611009Y-115581904D01*
X164611009Y-115581904D02*
X164706247Y-115534285D01*
X164706247Y-115534285D02*
X164944342Y-115534285D01*
X164944342Y-115534285D02*
X165039580Y-115581904D01*
X165039580Y-115581904D02*
X165087200Y-115629523D01*
X165087200Y-115629523D02*
X165134819Y-115724761D01*
X165134819Y-115724761D02*
X165134819Y-115962856D01*
X165134819Y-115962856D02*
X165087200Y-116058094D01*
X165087200Y-116058094D02*
X165039580Y-116105713D01*
X161874819Y-116679166D02*
X161398628Y-117012499D01*
X161874819Y-117250594D02*
X160874819Y-117250594D01*
X160874819Y-117250594D02*
X160874819Y-116869642D01*
X160874819Y-116869642D02*
X160922438Y-116774404D01*
X160922438Y-116774404D02*
X160970057Y-116726785D01*
X160970057Y-116726785D02*
X161065295Y-116679166D01*
X161065295Y-116679166D02*
X161208152Y-116679166D01*
X161208152Y-116679166D02*
X161303390Y-116726785D01*
X161303390Y-116726785D02*
X161351009Y-116774404D01*
X161351009Y-116774404D02*
X161398628Y-116869642D01*
X161398628Y-116869642D02*
X161398628Y-117250594D01*
X160970057Y-116298213D02*
X160922438Y-116250594D01*
X160922438Y-116250594D02*
X160874819Y-116155356D01*
X160874819Y-116155356D02*
X160874819Y-115917261D01*
X160874819Y-115917261D02*
X160922438Y-115822023D01*
X160922438Y-115822023D02*
X160970057Y-115774404D01*
X160970057Y-115774404D02*
X161065295Y-115726785D01*
X161065295Y-115726785D02*
X161160533Y-115726785D01*
X161160533Y-115726785D02*
X161303390Y-115774404D01*
X161303390Y-115774404D02*
X161874819Y-116345832D01*
X161874819Y-116345832D02*
X161874819Y-115726785D01*
X142314819Y-123871904D02*
X143124342Y-123871904D01*
X143124342Y-123871904D02*
X143219580Y-123824285D01*
X143219580Y-123824285D02*
X143267200Y-123776666D01*
X143267200Y-123776666D02*
X143314819Y-123681428D01*
X143314819Y-123681428D02*
X143314819Y-123490952D01*
X143314819Y-123490952D02*
X143267200Y-123395714D01*
X143267200Y-123395714D02*
X143219580Y-123348095D01*
X143219580Y-123348095D02*
X143124342Y-123300476D01*
X143124342Y-123300476D02*
X142314819Y-123300476D01*
X143314819Y-122300476D02*
X143314819Y-122871904D01*
X143314819Y-122586190D02*
X142314819Y-122586190D01*
X142314819Y-122586190D02*
X142457676Y-122681428D01*
X142457676Y-122681428D02*
X142552914Y-122776666D01*
X142552914Y-122776666D02*
X142600533Y-122871904D01*
X168304819Y-116156666D02*
X167828628Y-116489999D01*
X168304819Y-116728094D02*
X167304819Y-116728094D01*
X167304819Y-116728094D02*
X167304819Y-116347142D01*
X167304819Y-116347142D02*
X167352438Y-116251904D01*
X167352438Y-116251904D02*
X167400057Y-116204285D01*
X167400057Y-116204285D02*
X167495295Y-116156666D01*
X167495295Y-116156666D02*
X167638152Y-116156666D01*
X167638152Y-116156666D02*
X167733390Y-116204285D01*
X167733390Y-116204285D02*
X167781009Y-116251904D01*
X167781009Y-116251904D02*
X167828628Y-116347142D01*
X167828628Y-116347142D02*
X167828628Y-116728094D01*
X167733390Y-115585237D02*
X167685771Y-115680475D01*
X167685771Y-115680475D02*
X167638152Y-115728094D01*
X167638152Y-115728094D02*
X167542914Y-115775713D01*
X167542914Y-115775713D02*
X167495295Y-115775713D01*
X167495295Y-115775713D02*
X167400057Y-115728094D01*
X167400057Y-115728094D02*
X167352438Y-115680475D01*
X167352438Y-115680475D02*
X167304819Y-115585237D01*
X167304819Y-115585237D02*
X167304819Y-115394761D01*
X167304819Y-115394761D02*
X167352438Y-115299523D01*
X167352438Y-115299523D02*
X167400057Y-115251904D01*
X167400057Y-115251904D02*
X167495295Y-115204285D01*
X167495295Y-115204285D02*
X167542914Y-115204285D01*
X167542914Y-115204285D02*
X167638152Y-115251904D01*
X167638152Y-115251904D02*
X167685771Y-115299523D01*
X167685771Y-115299523D02*
X167733390Y-115394761D01*
X167733390Y-115394761D02*
X167733390Y-115585237D01*
X167733390Y-115585237D02*
X167781009Y-115680475D01*
X167781009Y-115680475D02*
X167828628Y-115728094D01*
X167828628Y-115728094D02*
X167923866Y-115775713D01*
X167923866Y-115775713D02*
X168114342Y-115775713D01*
X168114342Y-115775713D02*
X168209580Y-115728094D01*
X168209580Y-115728094D02*
X168257200Y-115680475D01*
X168257200Y-115680475D02*
X168304819Y-115585237D01*
X168304819Y-115585237D02*
X168304819Y-115394761D01*
X168304819Y-115394761D02*
X168257200Y-115299523D01*
X168257200Y-115299523D02*
X168209580Y-115251904D01*
X168209580Y-115251904D02*
X168114342Y-115204285D01*
X168114342Y-115204285D02*
X167923866Y-115204285D01*
X167923866Y-115204285D02*
X167828628Y-115251904D01*
X167828628Y-115251904D02*
X167781009Y-115299523D01*
X167781009Y-115299523D02*
X167733390Y-115394761D01*
X175416666Y-120281009D02*
X175083333Y-120281009D01*
X175083333Y-120804819D02*
X175083333Y-119804819D01*
X175083333Y-119804819D02*
X175559523Y-119804819D01*
X176273809Y-120281009D02*
X176416666Y-120328628D01*
X176416666Y-120328628D02*
X176464285Y-120376247D01*
X176464285Y-120376247D02*
X176511904Y-120471485D01*
X176511904Y-120471485D02*
X176511904Y-120614342D01*
X176511904Y-120614342D02*
X176464285Y-120709580D01*
X176464285Y-120709580D02*
X176416666Y-120757200D01*
X176416666Y-120757200D02*
X176321428Y-120804819D01*
X176321428Y-120804819D02*
X175940476Y-120804819D01*
X175940476Y-120804819D02*
X175940476Y-119804819D01*
X175940476Y-119804819D02*
X176273809Y-119804819D01*
X176273809Y-119804819D02*
X176369047Y-119852438D01*
X176369047Y-119852438D02*
X176416666Y-119900057D01*
X176416666Y-119900057D02*
X176464285Y-119995295D01*
X176464285Y-119995295D02*
X176464285Y-120090533D01*
X176464285Y-120090533D02*
X176416666Y-120185771D01*
X176416666Y-120185771D02*
X176369047Y-120233390D01*
X176369047Y-120233390D02*
X176273809Y-120281009D01*
X176273809Y-120281009D02*
X175940476Y-120281009D01*
X176892857Y-119900057D02*
X176940476Y-119852438D01*
X176940476Y-119852438D02*
X177035714Y-119804819D01*
X177035714Y-119804819D02*
X177273809Y-119804819D01*
X177273809Y-119804819D02*
X177369047Y-119852438D01*
X177369047Y-119852438D02*
X177416666Y-119900057D01*
X177416666Y-119900057D02*
X177464285Y-119995295D01*
X177464285Y-119995295D02*
X177464285Y-120090533D01*
X177464285Y-120090533D02*
X177416666Y-120233390D01*
X177416666Y-120233390D02*
X176845238Y-120804819D01*
X176845238Y-120804819D02*
X177464285Y-120804819D01*
X139936104Y-119453332D02*
X139974200Y-119491428D01*
X139974200Y-119491428D02*
X140012295Y-119605713D01*
X140012295Y-119605713D02*
X140012295Y-119681904D01*
X140012295Y-119681904D02*
X139974200Y-119796190D01*
X139974200Y-119796190D02*
X139898009Y-119872380D01*
X139898009Y-119872380D02*
X139821819Y-119910475D01*
X139821819Y-119910475D02*
X139669438Y-119948571D01*
X139669438Y-119948571D02*
X139555152Y-119948571D01*
X139555152Y-119948571D02*
X139402771Y-119910475D01*
X139402771Y-119910475D02*
X139326580Y-119872380D01*
X139326580Y-119872380D02*
X139250390Y-119796190D01*
X139250390Y-119796190D02*
X139212295Y-119681904D01*
X139212295Y-119681904D02*
X139212295Y-119605713D01*
X139212295Y-119605713D02*
X139250390Y-119491428D01*
X139250390Y-119491428D02*
X139288485Y-119453332D01*
X139288485Y-119148571D02*
X139250390Y-119110475D01*
X139250390Y-119110475D02*
X139212295Y-119034285D01*
X139212295Y-119034285D02*
X139212295Y-118843809D01*
X139212295Y-118843809D02*
X139250390Y-118767618D01*
X139250390Y-118767618D02*
X139288485Y-118729523D01*
X139288485Y-118729523D02*
X139364676Y-118691428D01*
X139364676Y-118691428D02*
X139440866Y-118691428D01*
X139440866Y-118691428D02*
X139555152Y-118729523D01*
X139555152Y-118729523D02*
X140012295Y-119186666D01*
X140012295Y-119186666D02*
X140012295Y-118691428D01*
X167713333Y-122059580D02*
X167665714Y-122107200D01*
X167665714Y-122107200D02*
X167522857Y-122154819D01*
X167522857Y-122154819D02*
X167427619Y-122154819D01*
X167427619Y-122154819D02*
X167284762Y-122107200D01*
X167284762Y-122107200D02*
X167189524Y-122011961D01*
X167189524Y-122011961D02*
X167141905Y-121916723D01*
X167141905Y-121916723D02*
X167094286Y-121726247D01*
X167094286Y-121726247D02*
X167094286Y-121583390D01*
X167094286Y-121583390D02*
X167141905Y-121392914D01*
X167141905Y-121392914D02*
X167189524Y-121297676D01*
X167189524Y-121297676D02*
X167284762Y-121202438D01*
X167284762Y-121202438D02*
X167427619Y-121154819D01*
X167427619Y-121154819D02*
X167522857Y-121154819D01*
X167522857Y-121154819D02*
X167665714Y-121202438D01*
X167665714Y-121202438D02*
X167713333Y-121250057D01*
X168570476Y-121488152D02*
X168570476Y-122154819D01*
X168332381Y-121107200D02*
X168094286Y-121821485D01*
X168094286Y-121821485D02*
X168713333Y-121821485D01*
X153856666Y-116281009D02*
X153523333Y-116281009D01*
X153523333Y-116804819D02*
X153523333Y-115804819D01*
X153523333Y-115804819D02*
X153999523Y-115804819D01*
X154713809Y-116281009D02*
X154856666Y-116328628D01*
X154856666Y-116328628D02*
X154904285Y-116376247D01*
X154904285Y-116376247D02*
X154951904Y-116471485D01*
X154951904Y-116471485D02*
X154951904Y-116614342D01*
X154951904Y-116614342D02*
X154904285Y-116709580D01*
X154904285Y-116709580D02*
X154856666Y-116757200D01*
X154856666Y-116757200D02*
X154761428Y-116804819D01*
X154761428Y-116804819D02*
X154380476Y-116804819D01*
X154380476Y-116804819D02*
X154380476Y-115804819D01*
X154380476Y-115804819D02*
X154713809Y-115804819D01*
X154713809Y-115804819D02*
X154809047Y-115852438D01*
X154809047Y-115852438D02*
X154856666Y-115900057D01*
X154856666Y-115900057D02*
X154904285Y-115995295D01*
X154904285Y-115995295D02*
X154904285Y-116090533D01*
X154904285Y-116090533D02*
X154856666Y-116185771D01*
X154856666Y-116185771D02*
X154809047Y-116233390D01*
X154809047Y-116233390D02*
X154713809Y-116281009D01*
X154713809Y-116281009D02*
X154380476Y-116281009D01*
X155904285Y-116804819D02*
X155332857Y-116804819D01*
X155618571Y-116804819D02*
X155618571Y-115804819D01*
X155618571Y-115804819D02*
X155523333Y-115947676D01*
X155523333Y-115947676D02*
X155428095Y-116042914D01*
X155428095Y-116042914D02*
X155332857Y-116090533D01*
X170499495Y-119454819D02*
X170499495Y-120264342D01*
X170499495Y-120264342D02*
X170547114Y-120359580D01*
X170547114Y-120359580D02*
X170594733Y-120407200D01*
X170594733Y-120407200D02*
X170689971Y-120454819D01*
X170689971Y-120454819D02*
X170880447Y-120454819D01*
X170880447Y-120454819D02*
X170975685Y-120407200D01*
X170975685Y-120407200D02*
X171023304Y-120359580D01*
X171023304Y-120359580D02*
X171070923Y-120264342D01*
X171070923Y-120264342D02*
X171070923Y-119454819D01*
X171499495Y-119550057D02*
X171547114Y-119502438D01*
X171547114Y-119502438D02*
X171642352Y-119454819D01*
X171642352Y-119454819D02*
X171880447Y-119454819D01*
X171880447Y-119454819D02*
X171975685Y-119502438D01*
X171975685Y-119502438D02*
X172023304Y-119550057D01*
X172023304Y-119550057D02*
X172070923Y-119645295D01*
X172070923Y-119645295D02*
X172070923Y-119740533D01*
X172070923Y-119740533D02*
X172023304Y-119883390D01*
X172023304Y-119883390D02*
X171451876Y-120454819D01*
X171451876Y-120454819D02*
X172070923Y-120454819D01*
X133873333Y-118893200D02*
X134073333Y-118959866D01*
X134073333Y-118959866D02*
X134406667Y-118959866D01*
X134406667Y-118959866D02*
X134540000Y-118893200D01*
X134540000Y-118893200D02*
X134606667Y-118826533D01*
X134606667Y-118826533D02*
X134673333Y-118693200D01*
X134673333Y-118693200D02*
X134673333Y-118559866D01*
X134673333Y-118559866D02*
X134606667Y-118426533D01*
X134606667Y-118426533D02*
X134540000Y-118359866D01*
X134540000Y-118359866D02*
X134406667Y-118293200D01*
X134406667Y-118293200D02*
X134140000Y-118226533D01*
X134140000Y-118226533D02*
X134006667Y-118159866D01*
X134006667Y-118159866D02*
X133940000Y-118093200D01*
X133940000Y-118093200D02*
X133873333Y-117959866D01*
X133873333Y-117959866D02*
X133873333Y-117826533D01*
X133873333Y-117826533D02*
X133940000Y-117693200D01*
X133940000Y-117693200D02*
X134006667Y-117626533D01*
X134006667Y-117626533D02*
X134140000Y-117559866D01*
X134140000Y-117559866D02*
X134473333Y-117559866D01*
X134473333Y-117559866D02*
X134673333Y-117626533D01*
X136006666Y-118959866D02*
X135206666Y-118959866D01*
X135606666Y-118959866D02*
X135606666Y-117559866D01*
X135606666Y-117559866D02*
X135473333Y-117759866D01*
X135473333Y-117759866D02*
X135340000Y-117893200D01*
X135340000Y-117893200D02*
X135206666Y-117959866D01*
X173463333Y-124409580D02*
X173415714Y-124457200D01*
X173415714Y-124457200D02*
X173272857Y-124504819D01*
X173272857Y-124504819D02*
X173177619Y-124504819D01*
X173177619Y-124504819D02*
X173034762Y-124457200D01*
X173034762Y-124457200D02*
X172939524Y-124361961D01*
X172939524Y-124361961D02*
X172891905Y-124266723D01*
X172891905Y-124266723D02*
X172844286Y-124076247D01*
X172844286Y-124076247D02*
X172844286Y-123933390D01*
X172844286Y-123933390D02*
X172891905Y-123742914D01*
X172891905Y-123742914D02*
X172939524Y-123647676D01*
X172939524Y-123647676D02*
X173034762Y-123552438D01*
X173034762Y-123552438D02*
X173177619Y-123504819D01*
X173177619Y-123504819D02*
X173272857Y-123504819D01*
X173272857Y-123504819D02*
X173415714Y-123552438D01*
X173415714Y-123552438D02*
X173463333Y-123600057D01*
X174034762Y-123933390D02*
X173939524Y-123885771D01*
X173939524Y-123885771D02*
X173891905Y-123838152D01*
X173891905Y-123838152D02*
X173844286Y-123742914D01*
X173844286Y-123742914D02*
X173844286Y-123695295D01*
X173844286Y-123695295D02*
X173891905Y-123600057D01*
X173891905Y-123600057D02*
X173939524Y-123552438D01*
X173939524Y-123552438D02*
X174034762Y-123504819D01*
X174034762Y-123504819D02*
X174225238Y-123504819D01*
X174225238Y-123504819D02*
X174320476Y-123552438D01*
X174320476Y-123552438D02*
X174368095Y-123600057D01*
X174368095Y-123600057D02*
X174415714Y-123695295D01*
X174415714Y-123695295D02*
X174415714Y-123742914D01*
X174415714Y-123742914D02*
X174368095Y-123838152D01*
X174368095Y-123838152D02*
X174320476Y-123885771D01*
X174320476Y-123885771D02*
X174225238Y-123933390D01*
X174225238Y-123933390D02*
X174034762Y-123933390D01*
X174034762Y-123933390D02*
X173939524Y-123981009D01*
X173939524Y-123981009D02*
X173891905Y-124028628D01*
X173891905Y-124028628D02*
X173844286Y-124123866D01*
X173844286Y-124123866D02*
X173844286Y-124314342D01*
X173844286Y-124314342D02*
X173891905Y-124409580D01*
X173891905Y-124409580D02*
X173939524Y-124457200D01*
X173939524Y-124457200D02*
X174034762Y-124504819D01*
X174034762Y-124504819D02*
X174225238Y-124504819D01*
X174225238Y-124504819D02*
X174320476Y-124457200D01*
X174320476Y-124457200D02*
X174368095Y-124409580D01*
X174368095Y-124409580D02*
X174415714Y-124314342D01*
X174415714Y-124314342D02*
X174415714Y-124123866D01*
X174415714Y-124123866D02*
X174368095Y-124028628D01*
X174368095Y-124028628D02*
X174320476Y-123981009D01*
X174320476Y-123981009D02*
X174225238Y-123933390D01*
X146171905Y-110114819D02*
X146171905Y-109114819D01*
X146171905Y-109114819D02*
X146410000Y-109114819D01*
X146410000Y-109114819D02*
X146552857Y-109162438D01*
X146552857Y-109162438D02*
X146648095Y-109257676D01*
X146648095Y-109257676D02*
X146695714Y-109352914D01*
X146695714Y-109352914D02*
X146743333Y-109543390D01*
X146743333Y-109543390D02*
X146743333Y-109686247D01*
X146743333Y-109686247D02*
X146695714Y-109876723D01*
X146695714Y-109876723D02*
X146648095Y-109971961D01*
X146648095Y-109971961D02*
X146552857Y-110067200D01*
X146552857Y-110067200D02*
X146410000Y-110114819D01*
X146410000Y-110114819D02*
X146171905Y-110114819D01*
X147695714Y-110114819D02*
X147124286Y-110114819D01*
X147410000Y-110114819D02*
X147410000Y-109114819D01*
X147410000Y-109114819D02*
X147314762Y-109257676D01*
X147314762Y-109257676D02*
X147219524Y-109352914D01*
X147219524Y-109352914D02*
X147124286Y-109400533D01*
X178359580Y-118446666D02*
X178407200Y-118494285D01*
X178407200Y-118494285D02*
X178454819Y-118637142D01*
X178454819Y-118637142D02*
X178454819Y-118732380D01*
X178454819Y-118732380D02*
X178407200Y-118875237D01*
X178407200Y-118875237D02*
X178311961Y-118970475D01*
X178311961Y-118970475D02*
X178216723Y-119018094D01*
X178216723Y-119018094D02*
X178026247Y-119065713D01*
X178026247Y-119065713D02*
X177883390Y-119065713D01*
X177883390Y-119065713D02*
X177692914Y-119018094D01*
X177692914Y-119018094D02*
X177597676Y-118970475D01*
X177597676Y-118970475D02*
X177502438Y-118875237D01*
X177502438Y-118875237D02*
X177454819Y-118732380D01*
X177454819Y-118732380D02*
X177454819Y-118637142D01*
X177454819Y-118637142D02*
X177502438Y-118494285D01*
X177502438Y-118494285D02*
X177550057Y-118446666D01*
X177454819Y-117589523D02*
X177454819Y-117779999D01*
X177454819Y-117779999D02*
X177502438Y-117875237D01*
X177502438Y-117875237D02*
X177550057Y-117922856D01*
X177550057Y-117922856D02*
X177692914Y-118018094D01*
X177692914Y-118018094D02*
X177883390Y-118065713D01*
X177883390Y-118065713D02*
X178264342Y-118065713D01*
X178264342Y-118065713D02*
X178359580Y-118018094D01*
X178359580Y-118018094D02*
X178407200Y-117970475D01*
X178407200Y-117970475D02*
X178454819Y-117875237D01*
X178454819Y-117875237D02*
X178454819Y-117684761D01*
X178454819Y-117684761D02*
X178407200Y-117589523D01*
X178407200Y-117589523D02*
X178359580Y-117541904D01*
X178359580Y-117541904D02*
X178264342Y-117494285D01*
X178264342Y-117494285D02*
X178026247Y-117494285D01*
X178026247Y-117494285D02*
X177931009Y-117541904D01*
X177931009Y-117541904D02*
X177883390Y-117589523D01*
X177883390Y-117589523D02*
X177835771Y-117684761D01*
X177835771Y-117684761D02*
X177835771Y-117875237D01*
X177835771Y-117875237D02*
X177883390Y-117970475D01*
X177883390Y-117970475D02*
X177931009Y-118018094D01*
X177931009Y-118018094D02*
X178026247Y-118065713D01*
X168183333Y-124439580D02*
X168135714Y-124487200D01*
X168135714Y-124487200D02*
X167992857Y-124534819D01*
X167992857Y-124534819D02*
X167897619Y-124534819D01*
X167897619Y-124534819D02*
X167754762Y-124487200D01*
X167754762Y-124487200D02*
X167659524Y-124391961D01*
X167659524Y-124391961D02*
X167611905Y-124296723D01*
X167611905Y-124296723D02*
X167564286Y-124106247D01*
X167564286Y-124106247D02*
X167564286Y-123963390D01*
X167564286Y-123963390D02*
X167611905Y-123772914D01*
X167611905Y-123772914D02*
X167659524Y-123677676D01*
X167659524Y-123677676D02*
X167754762Y-123582438D01*
X167754762Y-123582438D02*
X167897619Y-123534819D01*
X167897619Y-123534819D02*
X167992857Y-123534819D01*
X167992857Y-123534819D02*
X168135714Y-123582438D01*
X168135714Y-123582438D02*
X168183333Y-123630057D01*
X168516667Y-123534819D02*
X169183333Y-123534819D01*
X169183333Y-123534819D02*
X168754762Y-124534819D01*
X156566666Y-117554819D02*
X156566666Y-118269104D01*
X156566666Y-118269104D02*
X156519047Y-118411961D01*
X156519047Y-118411961D02*
X156423809Y-118507200D01*
X156423809Y-118507200D02*
X156280952Y-118554819D01*
X156280952Y-118554819D02*
X156185714Y-118554819D01*
X157566666Y-118554819D02*
X156995238Y-118554819D01*
X157280952Y-118554819D02*
X157280952Y-117554819D01*
X157280952Y-117554819D02*
X157185714Y-117697676D01*
X157185714Y-117697676D02*
X157090476Y-117792914D01*
X157090476Y-117792914D02*
X156995238Y-117840533D01*
X174534819Y-115826666D02*
X174058628Y-116159999D01*
X174534819Y-116398094D02*
X173534819Y-116398094D01*
X173534819Y-116398094D02*
X173534819Y-116017142D01*
X173534819Y-116017142D02*
X173582438Y-115921904D01*
X173582438Y-115921904D02*
X173630057Y-115874285D01*
X173630057Y-115874285D02*
X173725295Y-115826666D01*
X173725295Y-115826666D02*
X173868152Y-115826666D01*
X173868152Y-115826666D02*
X173963390Y-115874285D01*
X173963390Y-115874285D02*
X174011009Y-115921904D01*
X174011009Y-115921904D02*
X174058628Y-116017142D01*
X174058628Y-116017142D02*
X174058628Y-116398094D01*
X173534819Y-114969523D02*
X173534819Y-115159999D01*
X173534819Y-115159999D02*
X173582438Y-115255237D01*
X173582438Y-115255237D02*
X173630057Y-115302856D01*
X173630057Y-115302856D02*
X173772914Y-115398094D01*
X173772914Y-115398094D02*
X173963390Y-115445713D01*
X173963390Y-115445713D02*
X174344342Y-115445713D01*
X174344342Y-115445713D02*
X174439580Y-115398094D01*
X174439580Y-115398094D02*
X174487200Y-115350475D01*
X174487200Y-115350475D02*
X174534819Y-115255237D01*
X174534819Y-115255237D02*
X174534819Y-115064761D01*
X174534819Y-115064761D02*
X174487200Y-114969523D01*
X174487200Y-114969523D02*
X174439580Y-114921904D01*
X174439580Y-114921904D02*
X174344342Y-114874285D01*
X174344342Y-114874285D02*
X174106247Y-114874285D01*
X174106247Y-114874285D02*
X174011009Y-114921904D01*
X174011009Y-114921904D02*
X173963390Y-114969523D01*
X173963390Y-114969523D02*
X173915771Y-115064761D01*
X173915771Y-115064761D02*
X173915771Y-115255237D01*
X173915771Y-115255237D02*
X173963390Y-115350475D01*
X173963390Y-115350475D02*
X174011009Y-115398094D01*
X174011009Y-115398094D02*
X174106247Y-115445713D01*
X171424819Y-115826666D02*
X170948628Y-116159999D01*
X171424819Y-116398094D02*
X170424819Y-116398094D01*
X170424819Y-116398094D02*
X170424819Y-116017142D01*
X170424819Y-116017142D02*
X170472438Y-115921904D01*
X170472438Y-115921904D02*
X170520057Y-115874285D01*
X170520057Y-115874285D02*
X170615295Y-115826666D01*
X170615295Y-115826666D02*
X170758152Y-115826666D01*
X170758152Y-115826666D02*
X170853390Y-115874285D01*
X170853390Y-115874285D02*
X170901009Y-115921904D01*
X170901009Y-115921904D02*
X170948628Y-116017142D01*
X170948628Y-116017142D02*
X170948628Y-116398094D01*
X170424819Y-115493332D02*
X170424819Y-114826666D01*
X170424819Y-114826666D02*
X171424819Y-115255237D01*
X158584819Y-116709166D02*
X158108628Y-117042499D01*
X158584819Y-117280594D02*
X157584819Y-117280594D01*
X157584819Y-117280594D02*
X157584819Y-116899642D01*
X157584819Y-116899642D02*
X157632438Y-116804404D01*
X157632438Y-116804404D02*
X157680057Y-116756785D01*
X157680057Y-116756785D02*
X157775295Y-116709166D01*
X157775295Y-116709166D02*
X157918152Y-116709166D01*
X157918152Y-116709166D02*
X158013390Y-116756785D01*
X158013390Y-116756785D02*
X158061009Y-116804404D01*
X158061009Y-116804404D02*
X158108628Y-116899642D01*
X158108628Y-116899642D02*
X158108628Y-117280594D01*
X158584819Y-115756785D02*
X158584819Y-116328213D01*
X158584819Y-116042499D02*
X157584819Y-116042499D01*
X157584819Y-116042499D02*
X157727676Y-116137737D01*
X157727676Y-116137737D02*
X157822914Y-116232975D01*
X157822914Y-116232975D02*
X157870533Y-116328213D01*
D11*
%TO.C,C1*%
X145265000Y-119018748D02*
X145265000Y-119541252D01*
X143795000Y-119018748D02*
X143795000Y-119541252D01*
%TO.C,R4*%
X150425000Y-119312936D02*
X150425000Y-119767064D01*
X148955000Y-119312936D02*
X148955000Y-119767064D01*
%TO.C,C3*%
X164998748Y-118875000D02*
X165521252Y-118875000D01*
X164998748Y-120345000D02*
X165521252Y-120345000D01*
%TO.C,R5*%
X148955000Y-123347064D02*
X148955000Y-122892936D01*
X150425000Y-123347064D02*
X150425000Y-122892936D01*
%TO.C,D2*%
X133772500Y-112340000D02*
X133772500Y-110420000D01*
X133772500Y-110420000D02*
X131087500Y-110420000D01*
X131087500Y-112340000D02*
X133772500Y-112340000D01*
%TO.C,R3*%
X148955000Y-116137064D02*
X148955000Y-115682936D01*
X150425000Y-116137064D02*
X150425000Y-115682936D01*
D12*
%TO.C,J2*%
X175010000Y-105880000D02*
X169950000Y-105880000D01*
X166780000Y-105880000D02*
X167810000Y-105880000D01*
X178780000Y-106850000D02*
X178780000Y-111210000D01*
X173436000Y-112180000D02*
X176710000Y-112180000D01*
X169945000Y-112180000D02*
X171210000Y-112180000D01*
X166780000Y-112180000D02*
X167810000Y-112180000D01*
D13*
X168980000Y-114130000D02*
G75*
G03*
X168980000Y-114130000I-100000J0D01*
G01*
D11*
%TO.C,C5*%
X166935000Y-115398748D02*
X166935000Y-115921252D01*
X165465000Y-115398748D02*
X165465000Y-115921252D01*
%TO.C,R2*%
X162335000Y-115849564D02*
X162335000Y-115395436D01*
X163805000Y-115849564D02*
X163805000Y-115395436D01*
%TO.C,U1*%
X146770000Y-123200000D02*
X146770000Y-121400000D01*
X146770000Y-123200000D02*
X146770000Y-124000000D01*
X143650000Y-123200000D02*
X143650000Y-122400000D01*
X143650000Y-123200000D02*
X143650000Y-124000000D01*
%TO.C,R8*%
X168625000Y-115867064D02*
X168625000Y-115412936D01*
X170095000Y-115867064D02*
X170095000Y-115412936D01*
%TO.C,C2*%
X140435000Y-119621252D02*
X140435000Y-119098748D01*
X141905000Y-119621252D02*
X141905000Y-119098748D01*
%TO.C,C4*%
X165008748Y-120975000D02*
X165531252Y-120975000D01*
X165008748Y-122445000D02*
X165531252Y-122445000D01*
D14*
%TO.C,U2*%
X169585000Y-121676400D02*
X172937800Y-121676400D01*
X172937800Y-118323600D02*
X169585000Y-118323600D01*
X169058000Y-118800000D02*
G75*
G03*
X169058000Y-118800000I-101600J0D01*
G01*
D12*
%TO.C,S1*%
X144720000Y-113609000D02*
X144720000Y-107811000D01*
X142440000Y-104725000D02*
X142440000Y-101625000D01*
X142440000Y-104725000D02*
X136840000Y-104725000D01*
X142440000Y-101625000D02*
X136840000Y-101625000D01*
X136840000Y-101625000D02*
X136840000Y-104725000D01*
X134560000Y-113609000D02*
X134560000Y-107811000D01*
D13*
X143425000Y-116960000D02*
G75*
G03*
X143425000Y-116960000I-100000J0D01*
G01*
D11*
%TO.C,C8*%
X175978748Y-123325000D02*
X176501252Y-123325000D01*
X175978748Y-124795000D02*
X176501252Y-124795000D01*
%TO.C,D1*%
X148595000Y-112340000D02*
X148595000Y-110420000D01*
X148595000Y-110420000D02*
X145910000Y-110420000D01*
X145910000Y-112340000D02*
X148595000Y-112340000D01*
%TO.C,C6*%
X178735000Y-115408748D02*
X178735000Y-115931252D01*
X177265000Y-115408748D02*
X177265000Y-115931252D01*
%TO.C,C7*%
X170758748Y-123325000D02*
X171281252Y-123325000D01*
X170758748Y-124795000D02*
X171281252Y-124795000D01*
%TO.C,J1*%
X152230000Y-123430000D02*
X152230000Y-121630000D01*
X152230000Y-125530000D02*
X152230000Y-126680000D01*
X161570000Y-123430000D02*
X161570000Y-121630000D01*
X161570000Y-125530000D02*
X161570000Y-126680000D01*
%TO.C,R6*%
X174865000Y-115887064D02*
X174865000Y-115432936D01*
X176335000Y-115887064D02*
X176335000Y-115432936D01*
%TO.C,R7*%
X173215000Y-115432936D02*
X173215000Y-115887064D01*
X171745000Y-115432936D02*
X171745000Y-115887064D01*
%TO.C,R1*%
X159045000Y-115879564D02*
X159045000Y-115425436D01*
X160515000Y-115879564D02*
X160515000Y-115425436D01*
%TD*%
M02*
