%TF.GenerationSoftware,KiCad,Pcbnew,7.0.7*%
%TF.CreationDate,2024-02-01T23:59:20-06:00*%
%TF.ProjectId,Md-rev-1,4d642d72-6576-42d3-912e-6b696361645f,rev?*%
%TF.SameCoordinates,Original*%
%TF.FileFunction,Copper,L2,Bot*%
%TF.FilePolarity,Positive*%
%FSLAX46Y46*%
G04 Gerber Fmt 4.6, Leading zero omitted, Abs format (unit mm)*
G04 Created by KiCad (PCBNEW 7.0.7) date 2024-02-01 23:59:20*
%MOMM*%
%LPD*%
G01*
G04 APERTURE LIST*
G04 Aperture macros list*
%AMRoundRect*
0 Rectangle with rounded corners*
0 $1 Rounding radius*
0 $2 $3 $4 $5 $6 $7 $8 $9 X,Y pos of 4 corners*
0 Add a 4 corners polygon primitive as box body*
4,1,4,$2,$3,$4,$5,$6,$7,$8,$9,$2,$3,0*
0 Add four circle primitives for the rounded corners*
1,1,$1+$1,$2,$3*
1,1,$1+$1,$4,$5*
1,1,$1+$1,$6,$7*
1,1,$1+$1,$8,$9*
0 Add four rect primitives between the rounded corners*
20,1,$1+$1,$2,$3,$4,$5,0*
20,1,$1+$1,$4,$5,$6,$7,0*
20,1,$1+$1,$6,$7,$8,$9,0*
20,1,$1+$1,$8,$9,$2,$3,0*%
G04 Aperture macros list end*
%TA.AperFunction,ComponentPad*%
%ADD10R,1.160000X1.160000*%
%TD*%
%TA.AperFunction,ComponentPad*%
%ADD11C,1.160000*%
%TD*%
%TA.AperFunction,ComponentPad*%
%ADD12R,1.378000X1.378000*%
%TD*%
%TA.AperFunction,ComponentPad*%
%ADD13O,1.750000X1.200000*%
%TD*%
%TA.AperFunction,ComponentPad*%
%ADD14C,1.378000*%
%TD*%
%TA.AperFunction,ComponentPad*%
%ADD15RoundRect,0.250000X0.625000X-0.350000X0.625000X0.350000X-0.625000X0.350000X-0.625000X-0.350000X0*%
%TD*%
%TA.AperFunction,ComponentPad*%
%ADD16O,1.000000X2.100000*%
%TD*%
%TA.AperFunction,ComponentPad*%
%ADD17O,1.000000X1.800000*%
%TD*%
%TA.AperFunction,ViaPad*%
%ADD18C,0.800000*%
%TD*%
%TA.AperFunction,Conductor*%
%ADD19C,0.250000*%
%TD*%
G04 APERTURE END LIST*
D10*
%TO.P,,1*%
%TO.N,unconnected-(R9-Pad1)*%
X178940000Y-119260000D03*
%TD*%
D11*
%TO.P,,3*%
%TO.N,/OUTPUT*%
X178940000Y-124340000D03*
%TD*%
D12*
%TO.P,,1*%
%TO.N,GND*%
X131450000Y-107670000D03*
%TD*%
D13*
%TO.P,,2,2*%
%TO.N,GND*%
X147850000Y-105000000D03*
%TD*%
D14*
%TO.P,,2*%
%TO.N,VDD*%
X131450000Y-105130000D03*
%TD*%
D15*
%TO.P,,1,1*%
%TO.N,/VBAT*%
X147850000Y-107000000D03*
%TD*%
D11*
%TO.P,,2*%
%TO.N,Net-(J2-Pad2)*%
X178940000Y-121800000D03*
%TD*%
D16*
%TO.P,J1,S1,SHIELD*%
%TO.N,GND*%
X152580000Y-120325000D03*
D17*
X152580000Y-124505000D03*
D16*
X161220000Y-120325000D03*
D17*
X161220000Y-124505000D03*
%TD*%
D18*
%TO.N,Net-(D2-A)*%
X147840000Y-121160000D03*
X131080000Y-115130000D03*
%TO.N,GND*%
X170310000Y-117760000D03*
X164470000Y-114700000D03*
X170750000Y-114780000D03*
X179400000Y-114750000D03*
X145210000Y-123655000D03*
X160540000Y-118120000D03*
X161240000Y-114740000D03*
X142860000Y-118370000D03*
X178430000Y-123070000D03*
X173080000Y-105010000D03*
X164280000Y-117970000D03*
X167670000Y-114720000D03*
X168320000Y-123020000D03*
%TO.N,/5V*%
X142740000Y-120680000D03*
X142790000Y-124510000D03*
%TO.N,Net-(J2-Pad2)*%
X174690000Y-112980000D03*
%TO.N,/VBAT*%
X142450000Y-112480000D03*
X151850000Y-114620000D03*
%TO.N,VDD*%
X174820000Y-118660000D03*
X139630000Y-108830000D03*
X168080000Y-120420000D03*
X157430000Y-114640000D03*
X166200000Y-118010000D03*
%TD*%
D19*
%TO.N,Net-(D2-A)*%
X147840000Y-121160000D02*
X146310000Y-119630000D01*
X146310000Y-119630000D02*
X146310000Y-117450000D01*
X146310000Y-117450000D02*
X133460000Y-117450000D01*
X133460000Y-117450000D02*
X131140000Y-115130000D01*
X131080000Y-115130000D02*
X131080000Y-115070000D01*
X131140000Y-115130000D02*
X131080000Y-115130000D01*
X131080000Y-115070000D02*
X131140000Y-115130000D01*
%TO.N,/5V*%
X142790000Y-124510000D02*
X142740000Y-124510000D01*
X142740000Y-120680000D02*
X142790000Y-124510000D01*
%TO.N,Net-(J2-Pad2)*%
X174690000Y-112980000D02*
X174690000Y-117550000D01*
X174690000Y-117550000D02*
X178940000Y-121800000D01*
%TO.N,/VBAT*%
X143760000Y-113790000D02*
X142450000Y-112480000D01*
X151020000Y-113790000D02*
X143760000Y-113790000D01*
X151850000Y-114620000D02*
X151020000Y-113790000D01*
%TO.N,VDD*%
X166200000Y-118540000D02*
X166200000Y-118010000D01*
X160215000Y-118795000D02*
X157440000Y-116020000D01*
X155314595Y-114640000D02*
X153974595Y-115980000D01*
X157430000Y-114640000D02*
X157440000Y-114670000D01*
X157440000Y-116020000D02*
X157430000Y-114640000D01*
X146360000Y-116740000D02*
X138470000Y-116740000D01*
X147120000Y-115980000D02*
X146360000Y-116740000D01*
X138470000Y-109990000D02*
X139630000Y-108830000D01*
X166200000Y-118010000D02*
X165415000Y-118795000D01*
X174820000Y-118660000D02*
X166850000Y-118660000D01*
X166850000Y-118660000D02*
X166200000Y-118010000D01*
X153974595Y-115980000D02*
X147120000Y-115980000D01*
X138470000Y-116740000D02*
X138470000Y-109990000D01*
X168080000Y-120420000D02*
X166200000Y-118540000D01*
X157430000Y-114640000D02*
X155314595Y-114640000D01*
X165415000Y-118795000D02*
X160215000Y-118795000D01*
%TD*%
%TA.AperFunction,Conductor*%
%TO.N,GND*%
G36*
X156752950Y-115285185D02*
G01*
X156798705Y-115337989D01*
X156809908Y-115388602D01*
X156813896Y-115939046D01*
X156812427Y-115952845D01*
X156813060Y-115952905D01*
X156812326Y-115960664D01*
X156814571Y-116032093D01*
X156814802Y-116063890D01*
X156815389Y-116068280D01*
X156815904Y-116074542D01*
X156817290Y-116118626D01*
X156823640Y-116140481D01*
X156827469Y-116158640D01*
X156830486Y-116181205D01*
X156830489Y-116181218D01*
X156847017Y-116222092D01*
X156849077Y-116228039D01*
X156861381Y-116270388D01*
X156861384Y-116270395D01*
X156872970Y-116289986D01*
X156881193Y-116306618D01*
X156889729Y-116327727D01*
X156915918Y-116363229D01*
X156919381Y-116368460D01*
X156941829Y-116406419D01*
X156957923Y-116422513D01*
X156970024Y-116436576D01*
X156983545Y-116454906D01*
X157017730Y-116482771D01*
X157022390Y-116486980D01*
X158369198Y-117833788D01*
X159714194Y-119178784D01*
X159724019Y-119191048D01*
X159724240Y-119190866D01*
X159729210Y-119196873D01*
X159729213Y-119196876D01*
X159729214Y-119196877D01*
X159779651Y-119244241D01*
X159800530Y-119265120D01*
X159806004Y-119269366D01*
X159810442Y-119273156D01*
X159844418Y-119305062D01*
X159844422Y-119305064D01*
X159861973Y-119314713D01*
X159878231Y-119325392D01*
X159894064Y-119337674D01*
X159913086Y-119345905D01*
X159936837Y-119356183D01*
X159942081Y-119358752D01*
X159982908Y-119381197D01*
X160002312Y-119386179D01*
X160020710Y-119392478D01*
X160039105Y-119400438D01*
X160085129Y-119407726D01*
X160090832Y-119408907D01*
X160135981Y-119420500D01*
X160143539Y-119422441D01*
X160143200Y-119423758D01*
X160199665Y-119448379D01*
X160238447Y-119506498D01*
X160241551Y-119568437D01*
X160220000Y-119673308D01*
X160220000Y-120194615D01*
X160200315Y-120261654D01*
X160147511Y-120307409D01*
X160078353Y-120317353D01*
X160048548Y-120309176D01*
X159940239Y-120264314D01*
X159940237Y-120264313D01*
X159940236Y-120264313D01*
X159920039Y-120261654D01*
X159827727Y-120249500D01*
X159827720Y-120249500D01*
X159752280Y-120249500D01*
X159752272Y-120249500D01*
X159639764Y-120264313D01*
X159639763Y-120264313D01*
X159499770Y-120322300D01*
X159499767Y-120322301D01*
X159499767Y-120322302D01*
X159429985Y-120375848D01*
X159379549Y-120414549D01*
X159287300Y-120534770D01*
X159229313Y-120674763D01*
X159229312Y-120674765D01*
X159209534Y-120824999D01*
X159209534Y-120825000D01*
X159229312Y-120975234D01*
X159229313Y-120975236D01*
X159287124Y-121114805D01*
X159287302Y-121115233D01*
X159379549Y-121235451D01*
X159499767Y-121327698D01*
X159639764Y-121385687D01*
X159752280Y-121400500D01*
X159752287Y-121400500D01*
X159827713Y-121400500D01*
X159827720Y-121400500D01*
X159940236Y-121385687D01*
X160080233Y-121327698D01*
X160139578Y-121282160D01*
X160204746Y-121256966D01*
X160273191Y-121271004D01*
X160323181Y-121319817D01*
X160323483Y-121320358D01*
X160395005Y-121449215D01*
X160395005Y-121449216D01*
X160527478Y-121603530D01*
X160527479Y-121603531D01*
X160688304Y-121728018D01*
X160870907Y-121817589D01*
X160970000Y-121843244D01*
X160970000Y-121279978D01*
X160989685Y-121212939D01*
X161042489Y-121167184D01*
X161111647Y-121157240D01*
X161127926Y-121160709D01*
X161191840Y-121178895D01*
X161303521Y-121168546D01*
X161303526Y-121168543D01*
X161312063Y-121166115D01*
X161381930Y-121166701D01*
X161440390Y-121204966D01*
X161468881Y-121268763D01*
X161470000Y-121285381D01*
X161470000Y-121848366D01*
X161471944Y-121848069D01*
X161471945Y-121848069D01*
X161662660Y-121777436D01*
X161662664Y-121777434D01*
X161835267Y-121669850D01*
X161982668Y-121529735D01*
X161982669Y-121529733D01*
X162098856Y-121362804D01*
X162179059Y-121175907D01*
X162220000Y-120976690D01*
X162220000Y-120575000D01*
X161644000Y-120575000D01*
X161576961Y-120555315D01*
X161531206Y-120502511D01*
X161520000Y-120451000D01*
X161520000Y-120199000D01*
X161539685Y-120131961D01*
X161592489Y-120086206D01*
X161644000Y-120075000D01*
X162220000Y-120075000D01*
X162220000Y-119724286D01*
X162204581Y-119572666D01*
X162203923Y-119569462D01*
X162204072Y-119567661D01*
X162203945Y-119566407D01*
X162204178Y-119566383D01*
X162209710Y-119499832D01*
X162252222Y-119444384D01*
X162317963Y-119420722D01*
X162325385Y-119420500D01*
X165332257Y-119420500D01*
X165347877Y-119422224D01*
X165347904Y-119421939D01*
X165355660Y-119422671D01*
X165355667Y-119422673D01*
X165424814Y-119420500D01*
X165454350Y-119420500D01*
X165461228Y-119419630D01*
X165467041Y-119419172D01*
X165513627Y-119417709D01*
X165532869Y-119412117D01*
X165551912Y-119408174D01*
X165571792Y-119405664D01*
X165615122Y-119388507D01*
X165620646Y-119386617D01*
X165624396Y-119385527D01*
X165665390Y-119373618D01*
X165682629Y-119363422D01*
X165700103Y-119354862D01*
X165718727Y-119347488D01*
X165718727Y-119347487D01*
X165718732Y-119347486D01*
X165756449Y-119320082D01*
X165761305Y-119316892D01*
X165801420Y-119293170D01*
X165815589Y-119278999D01*
X165830379Y-119266368D01*
X165846587Y-119254594D01*
X165846590Y-119254589D01*
X165852274Y-119249254D01*
X165854316Y-119251428D01*
X165900589Y-119220133D01*
X165970439Y-119218494D01*
X166025986Y-119250577D01*
X167141038Y-120365629D01*
X167174523Y-120426952D01*
X167176678Y-120440348D01*
X167181987Y-120490857D01*
X167194326Y-120608256D01*
X167194327Y-120608259D01*
X167252818Y-120788277D01*
X167252821Y-120788284D01*
X167347467Y-120952216D01*
X167452576Y-121068951D01*
X167474129Y-121092888D01*
X167627265Y-121204148D01*
X167627270Y-121204151D01*
X167800192Y-121281142D01*
X167800197Y-121281144D01*
X167985354Y-121320500D01*
X167985355Y-121320500D01*
X168174644Y-121320500D01*
X168174646Y-121320500D01*
X168359803Y-121281144D01*
X168532730Y-121204151D01*
X168685871Y-121092888D01*
X168812533Y-120952216D01*
X168907179Y-120788284D01*
X168965674Y-120608256D01*
X168985460Y-120420000D01*
X168965674Y-120231744D01*
X168907179Y-120051716D01*
X168812533Y-119887784D01*
X168685871Y-119747112D01*
X168685870Y-119747111D01*
X168532734Y-119635851D01*
X168532729Y-119635848D01*
X168359807Y-119558857D01*
X168359802Y-119558855D01*
X168230857Y-119531448D01*
X168227760Y-119530789D01*
X168166279Y-119497598D01*
X168132503Y-119436435D01*
X168137155Y-119366720D01*
X168178759Y-119310588D01*
X168244107Y-119285859D01*
X168253542Y-119285500D01*
X174116252Y-119285500D01*
X174183291Y-119305185D01*
X174208400Y-119326526D01*
X174214126Y-119332885D01*
X174214130Y-119332889D01*
X174367265Y-119444148D01*
X174367270Y-119444151D01*
X174540192Y-119521142D01*
X174540197Y-119521144D01*
X174725354Y-119560500D01*
X174725355Y-119560500D01*
X174914644Y-119560500D01*
X174914646Y-119560500D01*
X175099803Y-119521144D01*
X175272730Y-119444151D01*
X175390684Y-119358453D01*
X175431129Y-119329068D01*
X175432275Y-119330646D01*
X175486884Y-119304439D01*
X175556220Y-119313063D01*
X175594547Y-119339137D01*
X177830716Y-121575306D01*
X177864201Y-121636629D01*
X177866506Y-121674427D01*
X177854871Y-121799997D01*
X177854870Y-121800000D01*
X177873346Y-121999391D01*
X177873347Y-121999393D01*
X177928145Y-122191989D01*
X177928151Y-122192004D01*
X178017401Y-122371241D01*
X178017406Y-122371249D01*
X178138081Y-122531049D01*
X178265386Y-122647102D01*
X178286064Y-122665952D01*
X178456316Y-122771368D01*
X178643040Y-122843705D01*
X178839877Y-122880500D01*
X178839879Y-122880500D01*
X179040121Y-122880500D01*
X179040123Y-122880500D01*
X179236960Y-122843705D01*
X179423684Y-122771368D01*
X179593936Y-122665952D01*
X179741920Y-122531047D01*
X179776546Y-122485193D01*
X179832654Y-122443559D01*
X179902366Y-122438866D01*
X179963548Y-122472608D01*
X179996776Y-122534071D01*
X179999500Y-122559921D01*
X179999500Y-123580078D01*
X179979815Y-123647117D01*
X179927011Y-123692872D01*
X179857853Y-123702816D01*
X179794297Y-123673791D01*
X179776546Y-123654805D01*
X179741918Y-123608951D01*
X179593937Y-123474049D01*
X179593936Y-123474048D01*
X179529100Y-123433903D01*
X179423685Y-123368632D01*
X179423683Y-123368631D01*
X179272721Y-123310149D01*
X179236960Y-123296295D01*
X179040123Y-123259500D01*
X178839877Y-123259500D01*
X178643040Y-123296295D01*
X178643037Y-123296295D01*
X178643037Y-123296296D01*
X178456316Y-123368631D01*
X178456314Y-123368632D01*
X178286062Y-123474049D01*
X178138081Y-123608950D01*
X178017406Y-123768750D01*
X178017401Y-123768758D01*
X177928151Y-123947995D01*
X177928145Y-123948010D01*
X177873347Y-124140606D01*
X177873346Y-124140608D01*
X177854870Y-124339999D01*
X177854870Y-124340000D01*
X177873346Y-124539391D01*
X177873347Y-124539393D01*
X177928145Y-124731989D01*
X177928151Y-124732004D01*
X178017401Y-124911241D01*
X178017406Y-124911249D01*
X178138081Y-125071049D01*
X178260764Y-125182888D01*
X178286064Y-125205952D01*
X178415733Y-125286240D01*
X178440202Y-125301391D01*
X178456316Y-125311368D01*
X178643040Y-125383705D01*
X178643044Y-125383705D01*
X178643045Y-125383706D01*
X178648547Y-125385272D01*
X178648200Y-125386489D01*
X178704820Y-125415278D01*
X178740095Y-125475590D01*
X178737162Y-125545398D01*
X178696954Y-125602539D01*
X178632236Y-125628870D01*
X178619756Y-125629500D01*
X162171497Y-125629500D01*
X162104458Y-125609815D01*
X162058703Y-125557011D01*
X162048759Y-125487853D01*
X162069722Y-125434663D01*
X162098856Y-125392804D01*
X162179059Y-125205907D01*
X162220000Y-125006690D01*
X162220000Y-124755000D01*
X161644000Y-124755000D01*
X161576961Y-124735315D01*
X161531206Y-124682511D01*
X161520000Y-124631000D01*
X161520000Y-124379000D01*
X161539685Y-124311961D01*
X161592489Y-124266206D01*
X161644000Y-124255000D01*
X162220000Y-124255000D01*
X162220000Y-124054286D01*
X162204581Y-123902661D01*
X162143700Y-123708618D01*
X162143695Y-123708608D01*
X162044994Y-123530784D01*
X162044994Y-123530783D01*
X161912521Y-123376469D01*
X161912520Y-123376468D01*
X161751695Y-123251981D01*
X161569093Y-123162411D01*
X161470000Y-123136753D01*
X161470000Y-123700021D01*
X161450315Y-123767060D01*
X161397511Y-123812815D01*
X161328353Y-123822759D01*
X161312066Y-123819287D01*
X161248162Y-123801105D01*
X161248162Y-123801104D01*
X161136475Y-123811454D01*
X161127931Y-123813885D01*
X161058064Y-123813297D01*
X160999606Y-123775028D01*
X160971118Y-123711230D01*
X160970000Y-123694618D01*
X160970000Y-123131633D01*
X160968053Y-123131931D01*
X160968047Y-123131933D01*
X160777342Y-123202562D01*
X160777335Y-123202565D01*
X160604732Y-123310149D01*
X160457331Y-123450264D01*
X160457330Y-123450266D01*
X160341143Y-123617195D01*
X160260940Y-123804092D01*
X160220000Y-124003309D01*
X160220000Y-124255000D01*
X160796000Y-124255000D01*
X160863039Y-124274685D01*
X160908794Y-124327489D01*
X160920000Y-124379000D01*
X160920000Y-124631000D01*
X160900315Y-124698039D01*
X160847511Y-124743794D01*
X160796000Y-124755000D01*
X160220000Y-124755000D01*
X160220000Y-124955713D01*
X160235418Y-125107338D01*
X160296299Y-125301381D01*
X160296304Y-125301391D01*
X160376193Y-125445322D01*
X160391516Y-125513491D01*
X160367553Y-125579122D01*
X160311910Y-125621379D01*
X160267774Y-125629500D01*
X153531497Y-125629500D01*
X153464458Y-125609815D01*
X153418703Y-125557011D01*
X153408759Y-125487853D01*
X153429722Y-125434663D01*
X153458856Y-125392804D01*
X153539059Y-125205907D01*
X153580000Y-125006690D01*
X153580000Y-124755000D01*
X153004000Y-124755000D01*
X152936961Y-124735315D01*
X152891206Y-124682511D01*
X152880000Y-124631000D01*
X152880000Y-124379000D01*
X152899685Y-124311961D01*
X152952489Y-124266206D01*
X153004000Y-124255000D01*
X153580000Y-124255000D01*
X153580000Y-124054286D01*
X153564581Y-123902661D01*
X153503700Y-123708618D01*
X153503695Y-123708608D01*
X153404994Y-123530784D01*
X153404994Y-123530783D01*
X153272521Y-123376469D01*
X153272520Y-123376468D01*
X153111695Y-123251981D01*
X152929093Y-123162411D01*
X152830000Y-123136753D01*
X152830000Y-123700021D01*
X152810315Y-123767060D01*
X152757511Y-123812815D01*
X152688353Y-123822759D01*
X152672066Y-123819287D01*
X152608162Y-123801105D01*
X152608162Y-123801104D01*
X152496475Y-123811454D01*
X152487931Y-123813885D01*
X152418064Y-123813297D01*
X152359606Y-123775028D01*
X152331118Y-123711230D01*
X152330000Y-123694618D01*
X152330000Y-123131633D01*
X152328053Y-123131931D01*
X152328047Y-123131933D01*
X152137342Y-123202562D01*
X152137335Y-123202565D01*
X151964732Y-123310149D01*
X151817331Y-123450264D01*
X151817330Y-123450266D01*
X151701143Y-123617195D01*
X151620940Y-123804092D01*
X151580000Y-124003309D01*
X151580000Y-124255000D01*
X152156000Y-124255000D01*
X152223039Y-124274685D01*
X152268794Y-124327489D01*
X152280000Y-124379000D01*
X152280000Y-124631000D01*
X152260315Y-124698039D01*
X152207511Y-124743794D01*
X152156000Y-124755000D01*
X151580000Y-124755000D01*
X151580000Y-124955713D01*
X151595418Y-125107338D01*
X151656299Y-125301381D01*
X151656304Y-125301391D01*
X151736193Y-125445322D01*
X151751516Y-125513491D01*
X151727553Y-125579122D01*
X151671910Y-125621379D01*
X151627774Y-125629500D01*
X143034113Y-125629500D01*
X142967074Y-125609815D01*
X142921319Y-125557011D01*
X142911375Y-125487853D01*
X142940400Y-125424297D01*
X142999178Y-125386523D01*
X143008332Y-125384210D01*
X143019445Y-125381847D01*
X143069803Y-125371144D01*
X143242730Y-125294151D01*
X143395871Y-125182888D01*
X143522533Y-125042216D01*
X143617179Y-124878284D01*
X143675674Y-124698256D01*
X143695460Y-124510000D01*
X143675674Y-124321744D01*
X143617179Y-124141716D01*
X143537270Y-124003309D01*
X143522535Y-123977787D01*
X143522534Y-123977786D01*
X143522533Y-123977784D01*
X143438156Y-123884074D01*
X143407928Y-123821086D01*
X143406319Y-123802733D01*
X143374563Y-121370249D01*
X143393370Y-121302960D01*
X143406400Y-121285662D01*
X143472533Y-121212216D01*
X143567179Y-121048284D01*
X143625674Y-120868256D01*
X143645460Y-120680000D01*
X143625674Y-120491744D01*
X143567179Y-120311716D01*
X143472533Y-120147784D01*
X143345871Y-120007112D01*
X143313953Y-119983922D01*
X143192734Y-119895851D01*
X143192729Y-119895848D01*
X143019807Y-119818857D01*
X143019802Y-119818855D01*
X142868948Y-119786791D01*
X142834646Y-119779500D01*
X142645354Y-119779500D01*
X142612897Y-119786398D01*
X142460197Y-119818855D01*
X142460192Y-119818857D01*
X142287270Y-119895848D01*
X142287265Y-119895851D01*
X142134129Y-120007111D01*
X142007466Y-120147785D01*
X141912821Y-120311715D01*
X141912818Y-120311722D01*
X141855831Y-120487111D01*
X141854326Y-120491744D01*
X141834540Y-120680000D01*
X141854326Y-120868256D01*
X141854327Y-120868259D01*
X141912818Y-121048277D01*
X141912821Y-121048284D01*
X142007467Y-121212216D01*
X142091840Y-121305922D01*
X142122070Y-121368912D01*
X142123679Y-121387274D01*
X142155435Y-123819748D01*
X142136628Y-123887039D01*
X142123597Y-123904338D01*
X142057466Y-123977785D01*
X141962821Y-124141715D01*
X141962818Y-124141722D01*
X141904327Y-124321740D01*
X141904326Y-124321744D01*
X141884540Y-124510000D01*
X141904326Y-124698256D01*
X141904327Y-124698259D01*
X141962818Y-124878277D01*
X141962821Y-124878284D01*
X142057467Y-125042216D01*
X142153213Y-125148552D01*
X142184129Y-125182888D01*
X142337265Y-125294148D01*
X142337270Y-125294151D01*
X142510192Y-125371142D01*
X142510197Y-125371144D01*
X142571668Y-125384210D01*
X142633150Y-125417402D01*
X142666926Y-125478565D01*
X142662274Y-125548280D01*
X142620669Y-125604412D01*
X142555322Y-125629141D01*
X142545887Y-125629500D01*
X130124500Y-125629500D01*
X130057461Y-125609815D01*
X130011706Y-125557011D01*
X130000500Y-125505500D01*
X130000500Y-115504625D01*
X130020185Y-115437586D01*
X130072989Y-115391831D01*
X130142147Y-115381887D01*
X130205703Y-115410912D01*
X130242431Y-115466308D01*
X130252817Y-115498275D01*
X130252821Y-115498284D01*
X130347467Y-115662216D01*
X130474128Y-115802888D01*
X130474129Y-115802888D01*
X130627265Y-115914148D01*
X130627270Y-115914151D01*
X130800192Y-115991142D01*
X130800197Y-115991144D01*
X130985354Y-116030500D01*
X131104548Y-116030500D01*
X131171587Y-116050185D01*
X131192229Y-116066819D01*
X132959197Y-117833788D01*
X132969022Y-117846051D01*
X132969243Y-117845869D01*
X132974214Y-117851878D01*
X133000217Y-117876295D01*
X133024635Y-117899226D01*
X133045529Y-117920120D01*
X133051011Y-117924373D01*
X133055443Y-117928157D01*
X133089418Y-117960062D01*
X133106976Y-117969714D01*
X133123235Y-117980395D01*
X133139064Y-117992673D01*
X133181838Y-118011182D01*
X133187056Y-118013738D01*
X133227908Y-118036197D01*
X133247316Y-118041180D01*
X133265717Y-118047480D01*
X133284104Y-118055437D01*
X133327488Y-118062308D01*
X133330119Y-118062725D01*
X133335839Y-118063909D01*
X133380981Y-118075500D01*
X133401016Y-118075500D01*
X133420414Y-118077026D01*
X133440194Y-118080159D01*
X133440195Y-118080160D01*
X133440195Y-118080159D01*
X133440196Y-118080160D01*
X133486583Y-118075775D01*
X133492422Y-118075500D01*
X145560500Y-118075500D01*
X145627539Y-118095185D01*
X145673294Y-118147989D01*
X145684500Y-118199500D01*
X145684500Y-119547255D01*
X145682775Y-119562872D01*
X145683061Y-119562899D01*
X145682326Y-119570665D01*
X145684500Y-119639814D01*
X145684500Y-119669343D01*
X145684501Y-119669360D01*
X145685368Y-119676231D01*
X145685826Y-119682050D01*
X145687290Y-119728624D01*
X145687291Y-119728627D01*
X145692880Y-119747867D01*
X145696824Y-119766911D01*
X145698415Y-119779500D01*
X145699336Y-119786791D01*
X145716490Y-119830119D01*
X145718382Y-119835647D01*
X145731382Y-119880390D01*
X145740525Y-119895851D01*
X145741580Y-119897634D01*
X145750138Y-119915103D01*
X145757514Y-119933732D01*
X145784898Y-119971423D01*
X145788106Y-119976307D01*
X145811827Y-120016416D01*
X145811833Y-120016424D01*
X145825990Y-120030580D01*
X145838628Y-120045376D01*
X145843233Y-120051715D01*
X145850406Y-120061587D01*
X145875481Y-120082331D01*
X145886309Y-120091288D01*
X145890620Y-120095210D01*
X146403666Y-120608256D01*
X146901038Y-121105628D01*
X146934523Y-121166951D01*
X146936678Y-121180347D01*
X146940028Y-121212216D01*
X146954326Y-121348256D01*
X146954327Y-121348259D01*
X147012818Y-121528277D01*
X147012821Y-121528284D01*
X147107467Y-121692216D01*
X147220354Y-121817589D01*
X147234129Y-121832888D01*
X147387265Y-121944148D01*
X147387270Y-121944151D01*
X147560192Y-122021142D01*
X147560197Y-122021144D01*
X147745354Y-122060500D01*
X147745355Y-122060500D01*
X147934644Y-122060500D01*
X147934646Y-122060500D01*
X148119803Y-122021144D01*
X148292730Y-121944151D01*
X148445871Y-121832888D01*
X148572533Y-121692216D01*
X148667179Y-121528284D01*
X148725674Y-121348256D01*
X148745460Y-121160000D01*
X148725674Y-120971744D01*
X148710718Y-120925713D01*
X151580000Y-120925713D01*
X151595418Y-121077338D01*
X151656299Y-121271381D01*
X151656304Y-121271391D01*
X151755005Y-121449215D01*
X151755005Y-121449216D01*
X151887478Y-121603530D01*
X151887479Y-121603531D01*
X152048304Y-121728018D01*
X152230907Y-121817589D01*
X152330000Y-121843244D01*
X152330000Y-121279978D01*
X152349685Y-121212939D01*
X152402489Y-121167184D01*
X152471647Y-121157240D01*
X152487926Y-121160709D01*
X152551840Y-121178895D01*
X152663521Y-121168546D01*
X152663526Y-121168543D01*
X152672063Y-121166115D01*
X152741930Y-121166701D01*
X152800390Y-121204966D01*
X152828881Y-121268763D01*
X152830000Y-121285381D01*
X152830000Y-121848366D01*
X152831944Y-121848069D01*
X152831945Y-121848069D01*
X153022660Y-121777436D01*
X153022664Y-121777434D01*
X153195267Y-121669850D01*
X153342668Y-121529735D01*
X153342669Y-121529733D01*
X153458855Y-121362805D01*
X153471921Y-121332358D01*
X153516447Y-121278513D01*
X153583015Y-121257289D01*
X153650491Y-121275423D01*
X153661359Y-121282880D01*
X153664981Y-121285659D01*
X153719767Y-121327698D01*
X153859764Y-121385687D01*
X153972280Y-121400500D01*
X153972287Y-121400500D01*
X154047713Y-121400500D01*
X154047720Y-121400500D01*
X154160236Y-121385687D01*
X154300233Y-121327698D01*
X154420451Y-121235451D01*
X154512698Y-121115233D01*
X154570687Y-120975236D01*
X154590466Y-120825000D01*
X154570687Y-120674764D01*
X154512698Y-120534767D01*
X154420451Y-120414549D01*
X154300233Y-120322302D01*
X154300229Y-120322300D01*
X154207274Y-120283797D01*
X154160236Y-120264313D01*
X154140039Y-120261654D01*
X154047727Y-120249500D01*
X154047720Y-120249500D01*
X153972280Y-120249500D01*
X153972272Y-120249500D01*
X153859764Y-120264313D01*
X153859760Y-120264314D01*
X153751452Y-120309176D01*
X153681982Y-120316645D01*
X153619503Y-120285369D01*
X153583852Y-120225280D01*
X153580000Y-120194615D01*
X153580000Y-119724286D01*
X153564581Y-119572661D01*
X153503700Y-119378618D01*
X153503695Y-119378608D01*
X153404994Y-119200784D01*
X153404994Y-119200783D01*
X153272521Y-119046469D01*
X153272520Y-119046468D01*
X153111695Y-118921981D01*
X152929093Y-118832411D01*
X152830000Y-118806753D01*
X152830000Y-119370021D01*
X152810315Y-119437060D01*
X152757511Y-119482815D01*
X152688353Y-119492759D01*
X152672066Y-119489287D01*
X152608162Y-119471105D01*
X152608162Y-119471104D01*
X152496475Y-119481454D01*
X152487931Y-119483885D01*
X152418064Y-119483297D01*
X152359606Y-119445028D01*
X152331118Y-119381230D01*
X152330000Y-119364618D01*
X152330000Y-118801633D01*
X152328053Y-118801931D01*
X152328047Y-118801933D01*
X152137342Y-118872562D01*
X152137335Y-118872565D01*
X151964732Y-118980149D01*
X151817331Y-119120264D01*
X151817330Y-119120266D01*
X151701143Y-119287195D01*
X151620940Y-119474092D01*
X151580000Y-119673309D01*
X151580000Y-120075000D01*
X152156000Y-120075000D01*
X152223039Y-120094685D01*
X152268794Y-120147489D01*
X152280000Y-120199000D01*
X152280000Y-120451000D01*
X152260315Y-120518039D01*
X152207511Y-120563794D01*
X152156000Y-120575000D01*
X151580000Y-120575000D01*
X151580000Y-120925713D01*
X148710718Y-120925713D01*
X148667179Y-120791716D01*
X148572533Y-120627784D01*
X148445871Y-120487112D01*
X148445870Y-120487111D01*
X148292734Y-120375851D01*
X148292729Y-120375848D01*
X148119807Y-120298857D01*
X148119802Y-120298855D01*
X147957294Y-120264314D01*
X147934646Y-120259500D01*
X147934645Y-120259500D01*
X147875452Y-120259500D01*
X147808413Y-120239815D01*
X147787771Y-120223181D01*
X146971819Y-119407228D01*
X146938334Y-119345905D01*
X146935500Y-119319547D01*
X146935500Y-117520844D01*
X146937697Y-117497606D01*
X146939227Y-117489588D01*
X146935621Y-117432275D01*
X146935500Y-117428403D01*
X146935500Y-117410650D01*
X146933270Y-117393002D01*
X146932910Y-117389191D01*
X146929304Y-117331862D01*
X146926779Y-117324092D01*
X146921687Y-117301314D01*
X146920664Y-117293208D01*
X146899520Y-117239806D01*
X146898211Y-117236170D01*
X146884956Y-117195377D01*
X146882962Y-117125539D01*
X146915203Y-117069385D01*
X147342773Y-116641816D01*
X147404095Y-116608334D01*
X147430453Y-116605500D01*
X153891852Y-116605500D01*
X153907472Y-116607224D01*
X153907499Y-116606939D01*
X153915255Y-116607671D01*
X153915262Y-116607673D01*
X153984409Y-116605500D01*
X154013945Y-116605500D01*
X154020823Y-116604630D01*
X154026636Y-116604172D01*
X154073222Y-116602709D01*
X154092464Y-116597117D01*
X154111507Y-116593174D01*
X154131387Y-116590664D01*
X154174717Y-116573507D01*
X154180241Y-116571617D01*
X154183991Y-116570527D01*
X154224985Y-116558618D01*
X154242224Y-116548422D01*
X154259698Y-116539862D01*
X154278322Y-116532488D01*
X154278322Y-116532487D01*
X154278327Y-116532486D01*
X154316044Y-116505082D01*
X154320900Y-116501892D01*
X154361015Y-116478170D01*
X154375184Y-116463999D01*
X154389974Y-116451368D01*
X154406182Y-116439594D01*
X154435894Y-116403676D01*
X154439807Y-116399376D01*
X155537366Y-115301819D01*
X155598690Y-115268334D01*
X155625048Y-115265500D01*
X156685911Y-115265500D01*
X156752950Y-115285185D01*
G37*
%TD.AperFunction*%
%TA.AperFunction,Conductor*%
G36*
X179942539Y-104160185D02*
G01*
X179988294Y-104212989D01*
X179999500Y-104264500D01*
X179999499Y-118166026D01*
X179979814Y-118233065D01*
X179927010Y-118278820D01*
X179857852Y-118288764D01*
X179801188Y-118265292D01*
X179762331Y-118236204D01*
X179762328Y-118236202D01*
X179627482Y-118185908D01*
X179627483Y-118185908D01*
X179567883Y-118179501D01*
X179567881Y-118179500D01*
X179567873Y-118179500D01*
X179567864Y-118179500D01*
X178312129Y-118179500D01*
X178312123Y-118179501D01*
X178252516Y-118185908D01*
X178117671Y-118236202D01*
X178117664Y-118236206D01*
X178002455Y-118322452D01*
X178002452Y-118322455D01*
X177916206Y-118437664D01*
X177916202Y-118437671D01*
X177865908Y-118572517D01*
X177859501Y-118632116D01*
X177859500Y-118632135D01*
X177859500Y-119535547D01*
X177839815Y-119602586D01*
X177787011Y-119648341D01*
X177717853Y-119658285D01*
X177654297Y-119629260D01*
X177647819Y-119623228D01*
X175351819Y-117327228D01*
X175318334Y-117265905D01*
X175315500Y-117239547D01*
X175315500Y-113678687D01*
X175335185Y-113611648D01*
X175347350Y-113595715D01*
X175365891Y-113575122D01*
X175422533Y-113512216D01*
X175517179Y-113348284D01*
X175575674Y-113168256D01*
X175595460Y-112980000D01*
X175575674Y-112791744D01*
X175517179Y-112611716D01*
X175422533Y-112447784D01*
X175295871Y-112307112D01*
X175274719Y-112291744D01*
X175142734Y-112195851D01*
X175142729Y-112195848D01*
X174969807Y-112118857D01*
X174969802Y-112118855D01*
X174824000Y-112087865D01*
X174784646Y-112079500D01*
X174595354Y-112079500D01*
X174562897Y-112086398D01*
X174410197Y-112118855D01*
X174410192Y-112118857D01*
X174237270Y-112195848D01*
X174237265Y-112195851D01*
X174084129Y-112307111D01*
X173957466Y-112447785D01*
X173862821Y-112611715D01*
X173862818Y-112611722D01*
X173804327Y-112791740D01*
X173804326Y-112791744D01*
X173784540Y-112980000D01*
X173804326Y-113168256D01*
X173804327Y-113168259D01*
X173862818Y-113348277D01*
X173862821Y-113348284D01*
X173957466Y-113512215D01*
X174032649Y-113595715D01*
X174062879Y-113658707D01*
X174064499Y-113678687D01*
X174064500Y-117467255D01*
X174062775Y-117482872D01*
X174063061Y-117482899D01*
X174062326Y-117490665D01*
X174064500Y-117559814D01*
X174064500Y-117589343D01*
X174064501Y-117589360D01*
X174065368Y-117596231D01*
X174065826Y-117602050D01*
X174067290Y-117648624D01*
X174067291Y-117648627D01*
X174072880Y-117667867D01*
X174076824Y-117686911D01*
X174079336Y-117706791D01*
X174096490Y-117750119D01*
X174098382Y-117755647D01*
X174111381Y-117800388D01*
X174121580Y-117817634D01*
X174130136Y-117835100D01*
X174133450Y-117843469D01*
X174140386Y-117860984D01*
X174138316Y-117861803D01*
X174150929Y-117918988D01*
X174126702Y-117984523D01*
X174070890Y-118026556D01*
X174027220Y-118034500D01*
X167219685Y-118034500D01*
X167152646Y-118014815D01*
X167106891Y-117962011D01*
X167096365Y-117923464D01*
X167085674Y-117821744D01*
X167027179Y-117641716D01*
X166932533Y-117477784D01*
X166805871Y-117337112D01*
X166787955Y-117324095D01*
X166652734Y-117225851D01*
X166652729Y-117225848D01*
X166479807Y-117148857D01*
X166479802Y-117148855D01*
X166334000Y-117117865D01*
X166294646Y-117109500D01*
X166105354Y-117109500D01*
X166072897Y-117116398D01*
X165920197Y-117148855D01*
X165920192Y-117148857D01*
X165747270Y-117225848D01*
X165747265Y-117225851D01*
X165594129Y-117337111D01*
X165467466Y-117477785D01*
X165372821Y-117641715D01*
X165372818Y-117641722D01*
X165336715Y-117752837D01*
X165314326Y-117821744D01*
X165297218Y-117984523D01*
X165296679Y-117989649D01*
X165270094Y-118054263D01*
X165261040Y-118064368D01*
X165192228Y-118133181D01*
X165130905Y-118166666D01*
X165104546Y-118169500D01*
X160525452Y-118169500D01*
X160458413Y-118149815D01*
X160437771Y-118133181D01*
X158099572Y-115794981D01*
X158066087Y-115733658D01*
X158063256Y-115708204D01*
X158060544Y-115333983D01*
X158079742Y-115266805D01*
X158092387Y-115250120D01*
X158162533Y-115172216D01*
X158257179Y-115008284D01*
X158315674Y-114828256D01*
X158335460Y-114640000D01*
X158315674Y-114451744D01*
X158257179Y-114271716D01*
X158162533Y-114107784D01*
X158035871Y-113967112D01*
X158035870Y-113967111D01*
X157882734Y-113855851D01*
X157882729Y-113855848D01*
X157709807Y-113778857D01*
X157709802Y-113778855D01*
X157564000Y-113747865D01*
X157524646Y-113739500D01*
X157335354Y-113739500D01*
X157302897Y-113746398D01*
X157150197Y-113778855D01*
X157150192Y-113778857D01*
X156977270Y-113855848D01*
X156977265Y-113855851D01*
X156824130Y-113967110D01*
X156824126Y-113967114D01*
X156818400Y-113973474D01*
X156758913Y-114010121D01*
X156726252Y-114014500D01*
X155397333Y-114014500D01*
X155381716Y-114012776D01*
X155381689Y-114013062D01*
X155373927Y-114012327D01*
X155304799Y-114014500D01*
X155275245Y-114014500D01*
X155274524Y-114014590D01*
X155268352Y-114015369D01*
X155262540Y-114015826D01*
X155215968Y-114017290D01*
X155215967Y-114017290D01*
X155196724Y-114022881D01*
X155177674Y-114026825D01*
X155157806Y-114029334D01*
X155157804Y-114029335D01*
X155114479Y-114046488D01*
X155108952Y-114048380D01*
X155064205Y-114061381D01*
X155064204Y-114061382D01*
X155046962Y-114071579D01*
X155029494Y-114080137D01*
X155010864Y-114087513D01*
X155010862Y-114087514D01*
X154973171Y-114114898D01*
X154968289Y-114118105D01*
X154928174Y-114141830D01*
X154914003Y-114156000D01*
X154899218Y-114168628D01*
X154883007Y-114180407D01*
X154853304Y-114216310D01*
X154849372Y-114220631D01*
X153751823Y-115318181D01*
X153690500Y-115351666D01*
X153664142Y-115354500D01*
X152678904Y-115354500D01*
X152611865Y-115334815D01*
X152566110Y-115282011D01*
X152556166Y-115212853D01*
X152580774Y-115158967D01*
X152578715Y-115157471D01*
X152582529Y-115152220D01*
X152582533Y-115152216D01*
X152677179Y-114988284D01*
X152735674Y-114808256D01*
X152755460Y-114620000D01*
X152735674Y-114431744D01*
X152677179Y-114251716D01*
X152582533Y-114087784D01*
X152455871Y-113947112D01*
X152455870Y-113947111D01*
X152302734Y-113835851D01*
X152302729Y-113835848D01*
X152129807Y-113758857D01*
X152129802Y-113758855D01*
X151984001Y-113727865D01*
X151944646Y-113719500D01*
X151944645Y-113719500D01*
X151885453Y-113719500D01*
X151818414Y-113699815D01*
X151797772Y-113683181D01*
X151666772Y-113552181D01*
X151633287Y-113490858D01*
X151638271Y-113421166D01*
X151680143Y-113365233D01*
X151745607Y-113340816D01*
X151754453Y-113340500D01*
X163975240Y-113340500D01*
X163975383Y-113340528D01*
X163975384Y-113340524D01*
X163999997Y-113340539D01*
X164000000Y-113340541D01*
X164000383Y-113340383D01*
X164000500Y-113340099D01*
X164000541Y-113340000D01*
X164000540Y-113339997D01*
X164000583Y-113315889D01*
X164000500Y-113315467D01*
X164000500Y-109080936D01*
X168275631Y-109080936D01*
X168306442Y-109282063D01*
X168306445Y-109282075D01*
X168377111Y-109472881D01*
X168377113Y-109472884D01*
X168377114Y-109472887D01*
X168395814Y-109502888D01*
X168484745Y-109645567D01*
X168484749Y-109645572D01*
X168600003Y-109766819D01*
X168624941Y-109793053D01*
X168725463Y-109863018D01*
X168791949Y-109909294D01*
X168791950Y-109909294D01*
X168791951Y-109909295D01*
X168978942Y-109989540D01*
X169178259Y-110030500D01*
X169330743Y-110030500D01*
X169482439Y-110015074D01*
X169676579Y-109954162D01*
X169676580Y-109954161D01*
X169676588Y-109954159D01*
X169854502Y-109855409D01*
X170008895Y-109722866D01*
X170133448Y-109561958D01*
X170223060Y-109379271D01*
X170274063Y-109182285D01*
X170279203Y-109080936D01*
X175275631Y-109080936D01*
X175306442Y-109282063D01*
X175306445Y-109282075D01*
X175377111Y-109472881D01*
X175377113Y-109472884D01*
X175377114Y-109472887D01*
X175395814Y-109502888D01*
X175484745Y-109645567D01*
X175484749Y-109645572D01*
X175600003Y-109766819D01*
X175624941Y-109793053D01*
X175725463Y-109863018D01*
X175791949Y-109909294D01*
X175791950Y-109909294D01*
X175791951Y-109909295D01*
X175978942Y-109989540D01*
X176178259Y-110030500D01*
X176330743Y-110030500D01*
X176482439Y-110015074D01*
X176676579Y-109954162D01*
X176676580Y-109954161D01*
X176676588Y-109954159D01*
X176854502Y-109855409D01*
X177008895Y-109722866D01*
X177133448Y-109561958D01*
X177223060Y-109379271D01*
X177274063Y-109182285D01*
X177284369Y-108979064D01*
X177253556Y-108777929D01*
X177203119Y-108641744D01*
X177182888Y-108587118D01*
X177182887Y-108587117D01*
X177182886Y-108587113D01*
X177075252Y-108414429D01*
X176935059Y-108266947D01*
X176836587Y-108198409D01*
X176768050Y-108150705D01*
X176581056Y-108070459D01*
X176381741Y-108029500D01*
X176229258Y-108029500D01*
X176229257Y-108029500D01*
X176077560Y-108044925D01*
X175883420Y-108105837D01*
X175883405Y-108105844D01*
X175705500Y-108204589D01*
X175705495Y-108204592D01*
X175551106Y-108337132D01*
X175551104Y-108337134D01*
X175426554Y-108498037D01*
X175426553Y-108498040D01*
X175336940Y-108680728D01*
X175285937Y-108877714D01*
X175275631Y-109080936D01*
X170279203Y-109080936D01*
X170284369Y-108979064D01*
X170253556Y-108777929D01*
X170203119Y-108641744D01*
X170182888Y-108587118D01*
X170182887Y-108587117D01*
X170182886Y-108587113D01*
X170075252Y-108414429D01*
X169935059Y-108266947D01*
X169836587Y-108198409D01*
X169768050Y-108150705D01*
X169581056Y-108070459D01*
X169381741Y-108029500D01*
X169229258Y-108029500D01*
X169229257Y-108029500D01*
X169077560Y-108044925D01*
X168883420Y-108105837D01*
X168883405Y-108105844D01*
X168705500Y-108204589D01*
X168705495Y-108204592D01*
X168551106Y-108337132D01*
X168551104Y-108337134D01*
X168426554Y-108498037D01*
X168426553Y-108498040D01*
X168336940Y-108680728D01*
X168285937Y-108877714D01*
X168275631Y-109080936D01*
X164000500Y-109080936D01*
X164000500Y-104264500D01*
X164020185Y-104197461D01*
X164072989Y-104151706D01*
X164124500Y-104140500D01*
X179875500Y-104140500D01*
X179942539Y-104160185D01*
G37*
%TD.AperFunction*%
%TA.AperFunction,Conductor*%
G36*
X130524680Y-104160185D02*
G01*
X130570435Y-104212989D01*
X130580379Y-104282147D01*
X130556595Y-104339227D01*
X130434335Y-104501123D01*
X130434330Y-104501131D01*
X130336073Y-104698458D01*
X130336071Y-104698462D01*
X130336072Y-104698462D01*
X130281107Y-104891647D01*
X130275743Y-104910498D01*
X130255404Y-105129999D01*
X130255404Y-105130000D01*
X130275743Y-105349501D01*
X130275743Y-105349503D01*
X130275744Y-105349506D01*
X130336072Y-105561538D01*
X130336073Y-105561541D01*
X130434330Y-105758868D01*
X130434335Y-105758876D01*
X130567184Y-105934796D01*
X130730094Y-106083307D01*
X130730096Y-106083309D01*
X130917519Y-106199356D01*
X130917520Y-106199356D01*
X130917523Y-106199358D01*
X131025978Y-106241374D01*
X131081378Y-106283946D01*
X131104969Y-106349713D01*
X131089258Y-106417793D01*
X131039234Y-106466572D01*
X130981183Y-106481000D01*
X130713155Y-106481000D01*
X130653627Y-106487401D01*
X130653620Y-106487403D01*
X130518913Y-106537645D01*
X130518906Y-106537649D01*
X130403812Y-106623809D01*
X130403809Y-106623812D01*
X130317649Y-106738906D01*
X130317645Y-106738913D01*
X130267403Y-106873620D01*
X130267401Y-106873627D01*
X130261000Y-106933155D01*
X130261000Y-106933172D01*
X130260999Y-107420000D01*
X130905384Y-107420000D01*
X130972423Y-107439685D01*
X131018178Y-107492489D01*
X131028122Y-107561647D01*
X131026277Y-107571579D01*
X131011317Y-107637125D01*
X131011316Y-107637125D01*
X131021116Y-107767885D01*
X131021235Y-107768406D01*
X131021199Y-107768991D01*
X131021811Y-107777156D01*
X131020693Y-107777239D01*
X131016962Y-107838145D01*
X130975664Y-107894503D01*
X130910453Y-107919587D01*
X130900344Y-107920000D01*
X130261000Y-107920000D01*
X130261000Y-108406844D01*
X130267401Y-108466372D01*
X130267403Y-108466379D01*
X130317645Y-108601086D01*
X130317649Y-108601093D01*
X130403809Y-108716187D01*
X130403812Y-108716190D01*
X130518906Y-108802350D01*
X130518913Y-108802354D01*
X130653620Y-108852596D01*
X130653627Y-108852598D01*
X130713155Y-108858999D01*
X130713172Y-108859000D01*
X131200000Y-108859000D01*
X131200000Y-108216123D01*
X131219685Y-108149084D01*
X131272489Y-108103329D01*
X131341647Y-108093385D01*
X131360548Y-108097632D01*
X131384434Y-108105000D01*
X131384435Y-108105000D01*
X131482595Y-108105000D01*
X131482596Y-108105000D01*
X131557519Y-108093707D01*
X131626742Y-108103180D01*
X131679857Y-108148574D01*
X131699997Y-108215478D01*
X131700000Y-108216322D01*
X131699999Y-108858999D01*
X131700000Y-108859000D01*
X132186828Y-108859000D01*
X132186844Y-108858999D01*
X132246372Y-108852598D01*
X132246379Y-108852596D01*
X132381086Y-108802354D01*
X132381093Y-108802350D01*
X132496187Y-108716190D01*
X132496190Y-108716187D01*
X132582350Y-108601093D01*
X132582354Y-108601086D01*
X132632596Y-108466379D01*
X132632598Y-108466372D01*
X132638999Y-108406844D01*
X132639000Y-108406827D01*
X132639000Y-107920000D01*
X131994616Y-107920000D01*
X131927577Y-107900315D01*
X131881822Y-107847511D01*
X131871878Y-107778353D01*
X131873722Y-107768420D01*
X131888683Y-107702875D01*
X131886169Y-107669336D01*
X131878883Y-107572114D01*
X131878883Y-107572110D01*
X131878880Y-107572104D01*
X131878765Y-107571594D01*
X131878800Y-107571008D01*
X131878189Y-107562844D01*
X131879306Y-107562760D01*
X131883038Y-107501855D01*
X131924336Y-107445497D01*
X131989547Y-107420413D01*
X131999656Y-107420000D01*
X132639000Y-107420000D01*
X132639000Y-106933172D01*
X132638999Y-106933155D01*
X132632598Y-106873627D01*
X132632596Y-106873620D01*
X132582354Y-106738913D01*
X132582350Y-106738906D01*
X132496190Y-106623812D01*
X132496187Y-106623809D01*
X132381093Y-106537649D01*
X132381086Y-106537645D01*
X132246379Y-106487403D01*
X132246372Y-106487401D01*
X132186844Y-106481000D01*
X131918817Y-106481000D01*
X131851778Y-106461315D01*
X131806023Y-106408511D01*
X131796079Y-106339353D01*
X131825104Y-106275797D01*
X131874020Y-106241374D01*
X131982477Y-106199358D01*
X132169905Y-106083308D01*
X132332817Y-105934794D01*
X132465666Y-105758874D01*
X132563928Y-105561538D01*
X132624256Y-105349506D01*
X132644596Y-105130000D01*
X132624256Y-104910494D01*
X132563928Y-104698462D01*
X132547583Y-104665637D01*
X132465669Y-104501131D01*
X132465664Y-104501123D01*
X132343405Y-104339227D01*
X132318713Y-104273866D01*
X132333278Y-104205531D01*
X132382475Y-104155919D01*
X132442359Y-104140500D01*
X146592729Y-104140500D01*
X146659768Y-104160185D01*
X146705523Y-104212989D01*
X146715467Y-104282147D01*
X146686443Y-104345702D01*
X146674893Y-104359030D01*
X146674885Y-104359041D01*
X146569855Y-104540960D01*
X146569852Y-104540967D01*
X146501144Y-104739482D01*
X146501144Y-104739484D01*
X146499632Y-104750000D01*
X147361808Y-104750000D01*
X147428847Y-104769685D01*
X147474602Y-104822489D01*
X147484546Y-104891647D01*
X147482013Y-104904441D01*
X147481448Y-104906670D01*
X147471113Y-105031392D01*
X147487363Y-105095560D01*
X147484738Y-105165381D01*
X147444781Y-105222698D01*
X147380180Y-105249314D01*
X147367157Y-105250000D01*
X146503742Y-105250000D01*
X146530770Y-105361409D01*
X146618040Y-105552507D01*
X146739889Y-105723619D01*
X146739900Y-105723631D01*
X146842521Y-105821479D01*
X146877457Y-105881987D01*
X146874132Y-105951778D01*
X146833604Y-106008692D01*
X146822049Y-106016760D01*
X146756347Y-106057285D01*
X146756343Y-106057288D01*
X146632289Y-106181342D01*
X146540187Y-106330663D01*
X146540185Y-106330666D01*
X146540186Y-106330666D01*
X146485001Y-106497203D01*
X146485001Y-106497204D01*
X146485000Y-106497204D01*
X146474500Y-106599983D01*
X146474500Y-107400001D01*
X146474501Y-107400019D01*
X146485000Y-107502796D01*
X146485001Y-107502799D01*
X146507604Y-107571008D01*
X146540186Y-107669334D01*
X146632288Y-107818656D01*
X146756344Y-107942712D01*
X146905666Y-108034814D01*
X147072203Y-108089999D01*
X147174991Y-108100500D01*
X148525008Y-108100499D01*
X148627797Y-108089999D01*
X148794334Y-108034814D01*
X148810404Y-108024901D01*
X148877795Y-108006462D01*
X148944459Y-108027384D01*
X148989229Y-108081026D01*
X148999500Y-108130441D01*
X148999500Y-113040500D01*
X148979815Y-113107539D01*
X148927011Y-113153294D01*
X148875500Y-113164500D01*
X144070452Y-113164500D01*
X144003413Y-113144815D01*
X143982771Y-113128181D01*
X143388960Y-112534369D01*
X143355475Y-112473046D01*
X143353323Y-112459668D01*
X143335674Y-112291744D01*
X143277179Y-112111716D01*
X143182533Y-111947784D01*
X143055871Y-111807112D01*
X143055870Y-111807111D01*
X142902734Y-111695851D01*
X142902729Y-111695848D01*
X142729807Y-111618857D01*
X142729802Y-111618855D01*
X142584000Y-111587865D01*
X142544646Y-111579500D01*
X142355354Y-111579500D01*
X142322897Y-111586398D01*
X142170197Y-111618855D01*
X142170192Y-111618857D01*
X141997270Y-111695848D01*
X141997265Y-111695851D01*
X141844129Y-111807111D01*
X141717466Y-111947785D01*
X141622821Y-112111715D01*
X141622818Y-112111722D01*
X141564327Y-112291740D01*
X141564326Y-112291744D01*
X141544540Y-112480000D01*
X141564326Y-112668256D01*
X141564327Y-112668259D01*
X141622818Y-112848277D01*
X141622821Y-112848284D01*
X141717467Y-113012216D01*
X141821883Y-113128181D01*
X141844129Y-113152888D01*
X141997265Y-113264148D01*
X141997270Y-113264151D01*
X142170192Y-113341142D01*
X142170197Y-113341144D01*
X142355354Y-113380500D01*
X142414548Y-113380500D01*
X142481587Y-113400185D01*
X142502229Y-113416819D01*
X143259194Y-114173784D01*
X143269019Y-114186048D01*
X143269240Y-114185866D01*
X143274210Y-114191873D01*
X143274213Y-114191876D01*
X143274214Y-114191877D01*
X143324651Y-114239241D01*
X143345530Y-114260120D01*
X143351004Y-114264366D01*
X143355442Y-114268156D01*
X143389418Y-114300062D01*
X143389422Y-114300064D01*
X143406973Y-114309713D01*
X143423231Y-114320392D01*
X143439064Y-114332674D01*
X143461015Y-114342172D01*
X143481837Y-114351183D01*
X143487081Y-114353752D01*
X143527908Y-114376197D01*
X143547312Y-114381179D01*
X143565710Y-114387478D01*
X143584105Y-114395438D01*
X143630129Y-114402726D01*
X143635832Y-114403907D01*
X143680981Y-114415500D01*
X143701016Y-114415500D01*
X143720413Y-114417026D01*
X143740196Y-114420160D01*
X143786583Y-114415775D01*
X143792422Y-114415500D01*
X150709548Y-114415500D01*
X150776587Y-114435185D01*
X150797223Y-114451814D01*
X150911039Y-114565630D01*
X150944523Y-114626952D01*
X150946678Y-114640348D01*
X150954968Y-114719227D01*
X150964326Y-114808256D01*
X150964327Y-114808259D01*
X151022818Y-114988277D01*
X151022821Y-114988284D01*
X151117466Y-115152215D01*
X151121285Y-115157471D01*
X151118859Y-115159233D01*
X151143472Y-115210499D01*
X151134859Y-115279835D01*
X151090127Y-115333509D01*
X151023478Y-115354477D01*
X151021096Y-115354500D01*
X147202737Y-115354500D01*
X147187120Y-115352776D01*
X147187093Y-115353062D01*
X147179331Y-115352327D01*
X147110203Y-115354500D01*
X147080650Y-115354500D01*
X147079929Y-115354590D01*
X147073757Y-115355369D01*
X147067945Y-115355826D01*
X147021378Y-115357290D01*
X147021367Y-115357292D01*
X147002134Y-115362879D01*
X146983094Y-115366822D01*
X146963217Y-115369334D01*
X146963210Y-115369335D01*
X146963208Y-115369336D01*
X146963206Y-115369336D01*
X146963205Y-115369337D01*
X146919868Y-115386494D01*
X146914342Y-115388386D01*
X146869611Y-115401382D01*
X146869608Y-115401383D01*
X146852363Y-115411581D01*
X146834901Y-115420135D01*
X146816272Y-115427511D01*
X146816267Y-115427513D01*
X146778564Y-115454906D01*
X146773682Y-115458112D01*
X146733580Y-115481828D01*
X146719408Y-115496000D01*
X146704623Y-115508628D01*
X146688412Y-115520407D01*
X146658709Y-115556310D01*
X146654777Y-115560631D01*
X146137228Y-116078181D01*
X146075905Y-116111666D01*
X146049547Y-116114500D01*
X139219500Y-116114500D01*
X139152461Y-116094815D01*
X139106706Y-116042011D01*
X139095500Y-115990500D01*
X139095500Y-110300452D01*
X139115185Y-110233413D01*
X139131819Y-110212771D01*
X139577771Y-109766819D01*
X139639094Y-109733334D01*
X139665452Y-109730500D01*
X139724644Y-109730500D01*
X139724646Y-109730500D01*
X139909803Y-109691144D01*
X140082730Y-109614151D01*
X140235871Y-109502888D01*
X140362533Y-109362216D01*
X140457179Y-109198284D01*
X140515674Y-109018256D01*
X140535460Y-108830000D01*
X140515674Y-108641744D01*
X140457179Y-108461716D01*
X140362533Y-108297784D01*
X140235871Y-108157112D01*
X140235870Y-108157111D01*
X140082734Y-108045851D01*
X140082729Y-108045848D01*
X139909807Y-107968857D01*
X139909802Y-107968855D01*
X139764000Y-107937865D01*
X139724646Y-107929500D01*
X139535354Y-107929500D01*
X139502897Y-107936398D01*
X139350197Y-107968855D01*
X139350192Y-107968857D01*
X139177270Y-108045848D01*
X139177265Y-108045851D01*
X139024129Y-108157111D01*
X138897466Y-108297785D01*
X138802821Y-108461715D01*
X138802818Y-108461722D01*
X138757534Y-108601093D01*
X138744326Y-108641744D01*
X138740229Y-108680728D01*
X138726679Y-108809649D01*
X138700094Y-108874263D01*
X138691039Y-108884368D01*
X138086208Y-109489199D01*
X138073951Y-109499020D01*
X138074134Y-109499241D01*
X138068123Y-109504213D01*
X138020772Y-109554636D01*
X137999889Y-109575519D01*
X137999877Y-109575532D01*
X137995621Y-109581017D01*
X137991837Y-109585447D01*
X137959937Y-109619418D01*
X137959936Y-109619420D01*
X137950284Y-109636976D01*
X137939610Y-109653226D01*
X137927329Y-109669061D01*
X137927324Y-109669068D01*
X137908815Y-109711838D01*
X137906245Y-109717084D01*
X137883803Y-109757906D01*
X137878822Y-109777307D01*
X137872521Y-109795710D01*
X137864562Y-109814102D01*
X137864561Y-109814105D01*
X137857271Y-109860127D01*
X137856087Y-109865846D01*
X137844501Y-109910972D01*
X137844500Y-109910982D01*
X137844500Y-109931016D01*
X137842973Y-109950415D01*
X137839840Y-109970194D01*
X137839840Y-109970195D01*
X137844225Y-110016583D01*
X137844500Y-110022421D01*
X137844500Y-116669152D01*
X137842305Y-116692382D01*
X137840772Y-116700415D01*
X137840283Y-116708200D01*
X137836730Y-116707976D01*
X137825168Y-116760288D01*
X137775599Y-116809529D01*
X137716534Y-116824500D01*
X133770453Y-116824500D01*
X133703414Y-116804815D01*
X133682772Y-116788181D01*
X132011914Y-115117323D01*
X131978429Y-115056000D01*
X131976274Y-115042604D01*
X131972667Y-115008284D01*
X131965674Y-114941744D01*
X131907179Y-114761716D01*
X131812533Y-114597784D01*
X131685871Y-114457112D01*
X131650955Y-114431744D01*
X131532734Y-114345851D01*
X131532729Y-114345848D01*
X131359807Y-114268857D01*
X131359802Y-114268855D01*
X131214000Y-114237865D01*
X131174646Y-114229500D01*
X130985354Y-114229500D01*
X130952897Y-114236398D01*
X130800197Y-114268855D01*
X130800192Y-114268857D01*
X130627270Y-114345848D01*
X130627265Y-114345851D01*
X130474129Y-114457111D01*
X130347466Y-114597785D01*
X130252821Y-114761715D01*
X130252818Y-114761722D01*
X130242431Y-114793692D01*
X130202993Y-114851368D01*
X130138635Y-114878566D01*
X130069788Y-114866651D01*
X130018313Y-114819407D01*
X130000500Y-114755374D01*
X130000500Y-104264500D01*
X130020185Y-104197461D01*
X130072989Y-104151706D01*
X130124500Y-104140500D01*
X130457641Y-104140500D01*
X130524680Y-104160185D01*
G37*
%TD.AperFunction*%
%TD*%
M02*
