%TF.GenerationSoftware,KiCad,Pcbnew,7.0.7*%
%TF.CreationDate,2024-02-01T03:43:03-06:00*%
%TF.ProjectId,Md-rev-1,4d642d72-6576-42d3-912e-6b696361645f,rev?*%
%TF.SameCoordinates,Original*%
%TF.FileFunction,Paste,Top*%
%TF.FilePolarity,Positive*%
%FSLAX46Y46*%
G04 Gerber Fmt 4.6, Leading zero omitted, Abs format (unit mm)*
G04 Created by KiCad (PCBNEW 7.0.7) date 2024-02-01 03:43:03*
%MOMM*%
%LPD*%
G01*
G04 APERTURE LIST*
G04 Aperture macros list*
%AMRoundRect*
0 Rectangle with rounded corners*
0 $1 Rounding radius*
0 $2 $3 $4 $5 $6 $7 $8 $9 X,Y pos of 4 corners*
0 Add a 4 corners polygon primitive as box body*
4,1,4,$2,$3,$4,$5,$6,$7,$8,$9,$2,$3,0*
0 Add four circle primitives for the rounded corners*
1,1,$1+$1,$2,$3*
1,1,$1+$1,$4,$5*
1,1,$1+$1,$6,$7*
1,1,$1+$1,$8,$9*
0 Add four rect primitives between the rounded corners*
20,1,$1+$1,$2,$3,$4,$5,0*
20,1,$1+$1,$4,$5,$6,$7,0*
20,1,$1+$1,$6,$7,$8,$9,0*
20,1,$1+$1,$8,$9,$2,$3,0*%
G04 Aperture macros list end*
%ADD10R,1.117600X1.447800*%
%ADD11RoundRect,0.250000X-0.250000X-0.475000X0.250000X-0.475000X0.250000X0.475000X-0.250000X0.475000X0*%
%ADD12R,0.711200X0.203200*%
%ADD13R,1.701800X2.387600*%
%ADD14RoundRect,0.250000X-0.475000X0.250000X-0.475000X-0.250000X0.475000X-0.250000X0.475000X0.250000X0*%
%ADD15RoundRect,0.250000X-0.450000X0.262500X-0.450000X-0.262500X0.450000X-0.262500X0.450000X0.262500X0*%
%ADD16RoundRect,0.250000X0.450000X-0.262500X0.450000X0.262500X-0.450000X0.262500X-0.450000X-0.262500X0*%
%ADD17RoundRect,0.243750X0.243750X0.456250X-0.243750X0.456250X-0.243750X-0.456250X0.243750X-0.456250X0*%
%ADD18R,1.500000X2.000000*%
%ADD19RoundRect,0.150000X-0.150000X0.512500X-0.150000X-0.512500X0.150000X-0.512500X0.150000X0.512500X0*%
%ADD20RoundRect,0.250000X0.475000X-0.250000X0.475000X0.250000X-0.475000X0.250000X-0.475000X-0.250000X0*%
%ADD21R,3.810000X2.030000*%
%ADD22R,1.020000X2.290000*%
%ADD23R,3.000000X2.500000*%
%ADD24R,0.600000X1.150000*%
%ADD25R,0.300000X1.150000*%
%ADD26O,1.000000X2.100000*%
%ADD27O,1.000000X1.800000*%
G04 APERTURE END LIST*
D10*
%TO.C,FB2*%
X175348300Y-121940000D03*
X177151700Y-121940000D03*
%TD*%
%TO.C,FB1*%
X155581700Y-114670000D03*
X153778300Y-114670000D03*
%TD*%
D11*
%TO.C,C8*%
X175290000Y-124060000D03*
X177190000Y-124060000D03*
%TD*%
D12*
%TO.C,U2*%
X169762800Y-118800000D03*
X169762800Y-119199999D03*
X169762800Y-119600001D03*
X169762800Y-120000000D03*
X169762800Y-120399999D03*
X169762800Y-120800001D03*
X169762800Y-121200000D03*
X172760000Y-121200000D03*
X172760000Y-120800001D03*
X172760000Y-120399999D03*
X172760000Y-120000000D03*
X172760000Y-119600001D03*
X172760000Y-119199999D03*
X172760000Y-118800000D03*
D13*
X171261400Y-120000000D03*
%TD*%
D14*
%TO.C,C1*%
X144560000Y-117930000D03*
X144560000Y-119830000D03*
%TD*%
D15*
%TO.C,R4*%
X149690000Y-118627500D03*
X149690000Y-120452500D03*
%TD*%
D11*
%TO.C,C3*%
X164310000Y-119610000D03*
X166210000Y-119610000D03*
%TD*%
D16*
%TO.C,R5*%
X149690000Y-124032500D03*
X149690000Y-122207500D03*
%TD*%
D17*
%TO.C,D2*%
X133025000Y-111380000D03*
X131150000Y-111380000D03*
%TD*%
D16*
%TO.C,R3*%
X149690000Y-116822500D03*
X149690000Y-114997500D03*
%TD*%
D18*
%TO.C,J2*%
X177780000Y-112530000D03*
X178280000Y-105530000D03*
X176080000Y-105530000D03*
X172280000Y-112530000D03*
X168880000Y-105530000D03*
X168880000Y-112530000D03*
%TD*%
D14*
%TO.C,C5*%
X166200000Y-114710000D03*
X166200000Y-116610000D03*
%TD*%
D16*
%TO.C,R2*%
X163070000Y-116535000D03*
X163070000Y-114710000D03*
%TD*%
D19*
%TO.C,U1*%
X146190000Y-121662500D03*
X145240000Y-121662500D03*
X144290000Y-121662500D03*
X144290000Y-123937500D03*
X146190000Y-123937500D03*
%TD*%
D16*
%TO.C,R8*%
X169360000Y-116552500D03*
X169360000Y-114727500D03*
%TD*%
D20*
%TO.C,C2*%
X141200000Y-119910000D03*
X141200000Y-118010000D03*
%TD*%
D11*
%TO.C,C4*%
X164320000Y-121710000D03*
X166220000Y-121710000D03*
%TD*%
D21*
%TO.C,S1*%
X143325000Y-115245000D03*
D22*
X139640000Y-115245000D03*
D21*
X135955000Y-115245000D03*
D23*
X144640000Y-106175000D03*
X134640000Y-106175000D03*
%TD*%
D17*
%TO.C,D1*%
X147847500Y-111380000D03*
X145972500Y-111380000D03*
%TD*%
D14*
%TO.C,C6*%
X178000000Y-114720000D03*
X178000000Y-116620000D03*
%TD*%
D11*
%TO.C,C7*%
X170070000Y-124060000D03*
X171970000Y-124060000D03*
%TD*%
D24*
%TO.C,J1*%
X153700000Y-119750000D03*
X154500000Y-119750000D03*
D25*
X155650000Y-119750000D03*
X156650000Y-119750000D03*
X157150000Y-119750000D03*
X158150000Y-119750000D03*
D24*
X159300000Y-119750000D03*
X160100000Y-119750000D03*
X160100000Y-119750000D03*
X159300000Y-119750000D03*
D25*
X158650000Y-119750000D03*
X157650000Y-119750000D03*
X156150000Y-119750000D03*
X155150000Y-119750000D03*
D24*
X154500000Y-119750000D03*
X153700000Y-119750000D03*
D26*
X152580000Y-120325000D03*
D27*
X152580000Y-124505000D03*
D26*
X161220000Y-120325000D03*
D27*
X161220000Y-124505000D03*
%TD*%
D16*
%TO.C,R6*%
X175600000Y-116572500D03*
X175600000Y-114747500D03*
%TD*%
D15*
%TO.C,R7*%
X172480000Y-114747500D03*
X172480000Y-116572500D03*
%TD*%
D16*
%TO.C,R1*%
X159780000Y-116565000D03*
X159780000Y-114740000D03*
%TD*%
M02*
